<svg xmlns="http://www.w3.org/2000/svg" viewBox="0 0 1024 1024"><defs><style>.cls-1{fill:#fff;}.cls-2{fill:#25b138;}</style></defs><g id="圖層_1" data-name="圖層 1"><circle class="cls-1" cx="512" cy="512" r="512"/></g><g id="Layer_2" data-name="Layer 2"><path class="cls-2" d="M314.15,439.64,306.54,456q-4.8,11.28-8.6,16.21a64.31,64.31,0,0,0-7.19,12.26l-7.89,17.2-7.05,7a13.51,13.51,0,0,0-1.69,4.51q0,5.07-3.67,13.39a109.62,109.62,0,0,0-5.63,15.64v3.39q0,2-4.51,8.74v3.38q0,1.13-4.8,10.43l.57,3.38a4.26,4.26,0,0,1-.57,1.69l-5.35,16.64q-2.55,7.89-2.68,11.27t-.42,6.2v5.08l-1.13,6.48.56,3.39V624a25.55,25.55,0,0,1-.56,5.92c1.13,3,2.63,5.07,4.51,6.2a2.07,2.07,0,0,1,1.69.7,1.52,1.52,0,0,0,1.13.71l7.89-5.08q8.18-4.79,11.84-10.14l8.18-7.33,1.69-2.54,3.39-.57a59,59,0,0,0,5.22-6.2q3-3.95,4.09-3.94a1.65,1.65,0,0,1,1.13.56h3.95a6.35,6.35,0,0,1,2.82.56l.56-1.12v-4.8q0-9.3,5.93-9.3a48.73,48.73,0,0,1,7.62-9l1.13-4.23q.56-2.25,6.06-7.33a45.5,45.5,0,0,0,9.45-12.68l9.88-11.56c.37-.75.94-2.16,1.69-4.23l2.26-2.26,4.79.57a2.28,2.28,0,0,0,1.14-2.26,4.31,4.31,0,0,0-.57-1.69,7.77,7.77,0,0,1-.57-3.38q0-2.54,8.32-13.39t10.58-16.07q2.26-5.22,4.52-5.22c.75,0,1.37.66,1.84,2a2.49,2.49,0,0,0,2.4,2,.5.5,0,0,0,.56-.56c0-.38-.29-.75-.85-1.13a1.91,1.91,0,0,1-.84-1.69,21.8,21.8,0,0,1,3.95-12,54.27,54.27,0,0,0,5.22-9.45,21.73,21.73,0,0,1,2.39-4.93,27,27,0,0,0,2.54-4.65,13.59,13.59,0,0,1,3.39-4.8,15.33,15.33,0,0,0,3.24-3.8,8.93,8.93,0,0,1,3.25-3.24c1.31-.75,2.54-3.48,3.66-8.18s5.18-10.05,12.14-16.07a4.87,4.87,0,0,1-1.7-3.38c0-.75.57-2.07,1.7-4q0-2,10-20.86t16.51-29l1.13-3.94,3.67-3.39,5.07-7.61L471,345.76q6.19-3.94,8.74-3.94a14.6,14.6,0,0,1,4.51.56c1.31-1.13,2.35-1.69,3.1-1.69a9.41,9.41,0,0,1,2.25.56h1.13c1.88-1.13,3.19-1.69,4-1.69a7,7,0,0,1,3.1,1.13h1.69q2.82,0,8.88,4.37t6.06,6.62l-.56,3.38.56,3.39q0,8.74-6.62,17.34t-7.76,10.57l-3.66,1.69a31.57,31.57,0,0,0-.71,4.37,9.73,9.73,0,0,1-2.39,5.64q-2,2.12-4.51,8a41,41,0,0,1-4.51,8.46v3.95L471,450.35a33.22,33.22,0,0,1-2.68,6.06,5,5,0,0,1-4.65,2.68,8.69,8.69,0,0,0,2.11,2.4,3.2,3.2,0,0,1,1.27,2.67q0,7.62-8.17,9.87a7,7,0,0,1,1.69,4l1.41,3.1-5.36,9.58v4.8a30.37,30.37,0,0,0-4,7.89v4.79c0,.94-1.13,3.39-3.39,7.33l-2.55,4.79a33.7,33.7,0,0,0-1.69,4.51h-.57l.57,5.92c-.38.38-1.52,1.32-3.4,2.82v5.64q-2.83,2.54-2.83,7.61,0,2.26-3.11,7a17,17,0,0,1,.57,2.82A31.88,31.88,0,0,1,434,568.89q-2.27,5.5-2.26,7.19v4.23a4.91,4.91,0,0,1,1.69,3.38,17.18,17.18,0,0,1-.85,3.25,16.55,16.55,0,0,0-.84,4.93q0,8.46,3.39,8.46l6.51-2a8,8,0,0,0,4.81-3.8,9.13,9.13,0,0,1,4.66-4.09,5.22,5.22,0,0,0,3.54-4.37q.27-3,5.49-4.23T482.6,563.4l8.74-5.08,2.25-3.94q2.25-2.26,7.47-8.74t8.32-6.49q8.46,0,8.45,9.31,0,1.41-2.67,11t-3.81,10.71a24,24,0,0,1-3.38,2.68q-2.27,1.56-4.51,6.34-13,12.69-19.17,14.38a66.22,66.22,0,0,0-6.2,5.22,46.57,46.57,0,0,1-7.48,5.78,34.59,34.59,0,0,0-6.06,4.51,20.3,20.3,0,0,1-7.33,4.23L455,614.42a4.42,4.42,0,0,0-1.69-.56c-1.13,0-2.41.84-3.82,2.54a13.73,13.73,0,0,1-6.37,3.94,19.13,19.13,0,0,0-6.64,3.53c-1.61,1.41-2.79,2.11-3.54,2.11l-4.53-2c-2.26,2.07-3.68,3.1-4.24,3.1l-3.4-1.69c-.38-.57-1.41-1.13-3.11-1.69a15.06,15.06,0,0,1-4.67-2.54,59.42,59.42,0,0,0-5.79-4q-3.66-2.25-6.76-10.43L398.15,604q-2.82-4.79-2.82-5.92,0-1.7.57-6.76v-1.7a45.22,45.22,0,0,0-1.13-8,44.69,44.69,0,0,1-1.13-8.32l6.77-37.49L399.28,529q0-4.23,3.52-11.41t6.91-32q-4.51,13.82-6.77,13.81l-4.23-.56a2.27,2.27,0,0,0-1.13,2.26,21.27,21.27,0,0,0,1.13,4.79v3.94q0,5.37-10.44,8.74a4.32,4.32,0,0,1-.56,1.69c2.07,1,3.1,1.89,3.1,2.82a11.71,11.71,0,0,1-5.22,10.15q-5.22,3.67-6.91,6.34c-1.13,1.79-2.16,2.68-3.1,2.68l-1.7-2.53h-.56l-2.82,5.35a8.3,8.3,0,0,1,1.69,2.82c0,.75-1.93,4.05-5.78,9.87s-6.16,8.74-6.91,8.74l-8.18,7.89-1.13,2.54v2.82a5.77,5.77,0,0,1-1.13,2.25l-11,15.51L334.68,604l-11.57,17.2a15.68,15.68,0,0,0-6.2,4.23l-2,1.12q0,4.51-7.33,8.46-2.53,7.62-7.05,10.43a31.28,31.28,0,0,0-6.77,5.36l-5.36,3.38-6.77,5.64L274,662.35l-3.39-2.54c-1.51,4.33-2.82,6.48-3.95,6.48l-6.49-1.12-5.36,1.12q-6.76,0-17.63-9T224.4,645.43L221,640.92a7.56,7.56,0,0,1-2.25-3.52c-.57-1.6-2.35-3.53-5.36-5.78l-2.82-4.51v-3.67q-6.77-9.86-7.47-12.82t-.7-13.11v-2.26l1.13-3.94-.57-6.49q0-4.5,2.68-12.68c1.78-5.45,2.68-8.55,2.68-9.31v-1.69l-.85-1.69,3.67-11.84q1.68-6.2,2.82-7.61t1.69-9.73q.56-8.31,8.17-8.31a4.37,4.37,0,0,1,1.69.56c1.51-.37,2.26-1.5,2.26-3.38h-1.13c-1.5,0-2.25-1-2.25-3.1a10.15,10.15,0,0,1,1.69-6.21q1.69-2.25,1.69-6.48,0-5.07,4.65-10.29c3.1-3.48,4.65-5.4,4.65-5.78q0-4.23,4.37-12.26a156.38,156.38,0,0,0,7.05-14.52,56.36,56.36,0,0,1,6.34-11.56,39.56,39.56,0,0,0,5.36-9.87,25.11,25.11,0,0,1,6.77-9.58l3.1-5.64a83.32,83.32,0,0,1,6.2-8.74,16.23,16.23,0,0,0,3.52-8.31,8.44,8.44,0,0,1,4.94-6.91c2.81-1.31,4.41-3,4.79-4.93a19.41,19.41,0,0,1,2.11-5.78,20.25,20.25,0,0,0,2.12-5.5,14.65,14.65,0,0,1,3.38-6.06c1.88-2.26,3.62-5.68,5.22-10.29s3.89-6.91,6.9-6.91l5.64.57.56-2a5.39,5.39,0,0,0-1.41-2.25,5.31,5.31,0,0,1-1.41-3.39q0-8.17,5.36-8.17c1.13,0,2.44,1.22,3.95,3.66q2-16.62,2.39-17.62a5.14,5.14,0,0,0,.43-2.11l.56-2.82a7.1,7.1,0,0,0,.56-3.1c0-1.31-.7-3-2.11-5.08s-2.59-3.1-3.52-3.1c-.19,0-2.36.47-6.49,1.41l-3.38-3.38c-1.88,4.14-3.76,6.2-5.64,6.2L300,317.57q-9.87,6.21-12.69,6.2l-4.51-1.69h-.56c-1.13,0-2.3,1.37-3.53,4.09s-3.71,4.09-7.47,4.09h-2.82c-2.81,3.38-5.17,5.31-7,5.78a15.16,15.16,0,0,0-6.06,3.52,19.71,19.71,0,0,1-5.5,3.66q-2.27.86-7.61,5.64l-2.82,1.69c-3.38,2.07-5.27,4.09-5.64,6.07a10.58,10.58,0,0,1-3.1,5.49q-10.14,7.33-10.14,12.12l.56,5.08-.56,7.33q0,3.11-5.22,7.47t-8.59,4.37q-20.28,0-20.28-12.12l1.12-8.18-.56-6.48.56-5.64q0-6.48,7.76-12.26a108.55,108.55,0,0,0,10.58-8.6l11-5.64a25.2,25.2,0,0,0,5.64-5.78q2-3,12.42-7.33t15.23-8.6q4.8-4.23,14.11-7.47a116.84,116.84,0,0,0,14.25-5.78c3.28-1.69,5.31-2.53,6.06-2.53l3.38.56a27.92,27.92,0,0,0,6.06-3.52,11.8,11.8,0,0,1,7.19-2.4l34.68-7.89q5.34-1.41,20.29,6.2t15,33.55q0,5.35-8.6,23.11a189.54,189.54,0,0,1-19,31.58l-1.69,4.22-7.61,13.25-4.51,9.87q-3.11,5.64-6.49,13.25l-5.07,6.77A34.39,34.39,0,0,0,314.15,439.64Z"/><path class="cls-2" d="M561.13,533.51l-7.61-.56c-.76.38-2.07,1.69-3.95,3.95a27.29,27.29,0,0,1-8.6,6.34q-5.78,3-6.9,5.78a20.5,20.5,0,0,1-2.25,4.37c-.76,1-1.65,2.4-2.68,4.09a15,15,0,0,1-3.8,4.23,11.68,11.68,0,0,0-3.67,5.21,5.08,5.08,0,0,1-5.07,3.52q-12.12,0-12.12-15.5,0-4.5,5.64-16.63t12.4-14.24a80.7,80.7,0,0,0,10.29-3.81q3.53-1.68,6.49-3T554.94,507q.57-.56,14.38-4.22l10.43-6.21c1.5-1.87,2.81-2.91,3.94-3.1a16.94,16.94,0,0,0,4.51-1.69l4.8-.56q3.09-3.66,9.86-5.64l7.89-3.38a96.65,96.65,0,0,1,20.3-8.18l1.69-1.13a6.56,6.56,0,0,1,1.7-1.12l7.61.56c2.25,0,3.75-1.78,4.51-5.36a4.37,4.37,0,0,1,1.69-.56l7,.56a8.68,8.68,0,0,0,2.82-1.41,15.3,15.3,0,0,1,5.21-2,8,8,0,0,0,4.93-3.1q2-2.53,4.23-2.54h4.8c1.5,0,3.28-1.45,5.35-4.37a49.27,49.27,0,0,1,8.46-8.88,4.94,4.94,0,0,0,2.25.57c1.13,0,2.16-1.27,3.11-3.81a14.11,14.11,0,0,1,4.08-6.06q2.69-2.25,6.06-8c2.26-3.84,4.37-6.29,6.35-7.32a20.7,20.7,0,0,0,5.64-4.52,8.78,8.78,0,0,1,5.49-3.24l.57-.56v-3.67q0-4.5,7.89-8.45a18,18,0,0,0,3.1-2.26v-4.23q0-.56,2.82-3.8c1.87-2.16,2.82-3.71,2.82-4.65q0-2.26,8.87-12t12.69-12q3.81-2.25,9.16-11.27l4-1.41a81.55,81.55,0,0,1,9.87-11.42,39.32,39.32,0,0,0,7.33-9.16l4.23-4.79a2.22,2.22,0,0,0,1.69-2.26c0-1.13-1.13-1.69-3.39-1.69q-3.66,0-10.42-2.26l-4.79,1.69-5.08-.56-7,3.38-6.76-.56q-7.05,4.23-9.87,4.79a32.85,32.85,0,0,0-4.37,1.13c-1,.38-2.21.75-3.52,1.13a26.05,26.05,0,0,0-5.36,2.53c-2.25,1.32-5.36,2-9.3,2q-2.26,0-5.5,2.68a78.86,78.86,0,0,1-10,6.62.5.5,0,0,1-.56.57l-8.18-.57q-12.67,12.69-16.07,12.69l-6.48-1.13q-9.87,3.66-15.36,8.46a62.66,62.66,0,0,1-10.57,7.61l-5.08-.57a96.12,96.12,0,0,1-8.6,8,11.29,11.29,0,0,0-3.38,4.37q-1.56,3.11-5.5,3.1l-6.2,4.79q0,4.23-6.48,9.31l-.57,1.12v6.21q0,2.25-4.37,6.06t-6.62,3.8q-5.08,0-10.29-6.62t-5.22-13.68a24.59,24.59,0,0,1,1.69-5.63l2.82-12.13q2.26-8.73,29-17.47l4.51-3.39c3.76-2.25,6.48-3.38,8.18-3.38l3.38-1.13,1.69-4.23a37,37,0,0,1,5.78-2.82,28.57,28.57,0,0,0,7.47-4.51,36.28,36.28,0,0,1,9.87-5.35l4.51-2.82H679q13.24-13.24,60.89-27.35t77.52-14.09q8.18,0,16.21,10.29t8,19q0,5.35-6.2,11c-3,1.51-5.26,4.93-6.76,10.29s-4,9.26-7.61,11.7q-11.28,9.87-12.13,12.12l-2.53,5.64a7,7,0,0,1-3.67,3.66c-1.69.76-3.29,2.82-4.79,6.21s-5.36,5.92-11.56,7.61c-.37.19-.66,1.36-.84,3.52s-2.45,4.47-6.77,6.91l-3.38,2.82q-2.82,9-5.36,10.43l-2.82,2.82q-3.94,13.81-13,13.81c-1.32,0-2.5,1.65-3.53,4.93s-3.8,6.26-8.31,8.88v1.7q12.12-3.94,17.48-3.95l3.94-.56,1.69-1.7a6,6,0,0,0,3.39,1.13q3.66,0,8.17-3.94l4.52.56a2.81,2.81,0,0,1,2-.56L798,430.62q6.22-1.12,13.87-2.82h2.83q9.62,0,15,5.92a20.63,20.63,0,0,1,5.38,14.37L834,456l.56,4.23c0,1.12-1.79,2.82-5.36,5.07l-2.83,2.26q-6.78,5.91-14.39,5.92-13,0-15.53-6.49c0-.74-1.27-1.22-3.81-1.41a13.81,13.81,0,0,1-5.79-1.41,7.08,7.08,0,0,0-3.1-1.12,27.88,27.88,0,0,1-7.63-1.13,19.48,19.48,0,0,1-11,3.38h-1.7L760,464.16l-5.36,3.95a4.24,4.24,0,0,1-1.7-.56,5,5,0,0,0-2.25-.57,7.65,7.65,0,0,0-3.81,1.27,8.42,8.42,0,0,1-4.38,1.27l-4-1.41a11.93,11.93,0,0,1-3.81,1.13q-2.13.28-4.66,3.66c-1.7,2.26-3.48,3.39-5.36,3.39q-4.82,0-9.32,9.3l-1.7,1.69H712q-2,0-2.83,4.65t-2,5.78c-3,.38-4.84,1.37-5.51,3a99.38,99.38,0,0,0-3,9.73l-2.54,5.07-3.39,2a56.08,56.08,0,0,1-10.3,20.29,130.5,130.5,0,0,0-11,15.93Q668,560,665,562.27t-4.1,7.47q-1.12,5.22-2.82,7t-6.78,12.26L642.54,604l-3.67,8.18q-2,3.95-5.08,3.94c-1.13,0-1.69.95-1.69,2.82v5.64q0,1.13-5.63,13.53l-2,5.64c-.38.75-1.5,1.6-3.38,2.54s-3.19,3.38-3.94,7.33-1.83,6.48-3.24,7.61-2.3,3.52-2.67,7.19a7.81,7.81,0,0,1-5.62,7.19,64.42,64.42,0,0,1-1,6.76c-.28,1.13-1.93,2.35-4.93,3.67h-.56l1.69,9.58c0,1.31-.38,2-1.13,2-1.87,1.12-2.81,2.06-2.81,2.81l1.13,3.39v1.13c0,.74-.76,2.53-2.26,5.35v.57a100.74,100.74,0,0,0,2.26,10.43l-1.69,3.38c0,3.38,1.49,5.07,4.5,5.07l8.72-5.63q3.95,0,3.94,9.3l.85,2.82c-1.69,1.13-2.54,2.06-2.54,2.82a6.84,6.84,0,0,0,.57,2.53,7.06,7.06,0,0,1,.56,2.54q0,9.3-16.6,9.3h-1.13a8.57,8.57,0,0,1-3.38-1.12l-5.92.56q-3.39,0-12.27-6.48t-13.53-19.6q-4.65-13.11-4.65-23l7.89-32.42a5.05,5.05,0,0,0,1.13-3.67,12.25,12.25,0,0,1,2-5.92l3.39-9.3q7.6-13.53,9.3-14.66c1.13-.75,2.72-1.69,4.79-2.82a11.78,11.78,0,0,0,4.23-3.38q-5.07-1.7-5.07-3.1c0-.57,1.45-3.38,4.37-8.46s5.3-7.8,7.18-8.18a.5.5,0,0,0,.57-.56,9.1,9.1,0,0,0-.57-2.25v-.57q0-.56,3.39-6.2l-1.13-4.23a15.35,15.35,0,0,1,3.24-3.38c1.41-1.13,3.34-4.27,5.78-9.45s4.32-8.07,5.64-8.73a8,8,0,0,0,2.82-2.12l-.85-7.89c0-.75.66-1.79,2-3.1l1.69-3.39a20.45,20.45,0,0,1,2.82-4.22,52.1,52.1,0,0,0,4.51-6.77l2-2.26a49.85,49.85,0,0,0,3.38-7q0-5.64,6.21-12.13L646.82,511q11.26-17.19,11.27-19.73v-.57q-6.2,0-16.07,5.5t-11,5.5L624.55,500q-1.14.57-9,8.74-13.26,0-25.66,8.74l-1.12.56h-5.64l-1.13.56-1.69,2.82a47.31,47.31,0,0,0-7.61,3.81,46.32,46.32,0,0,1-7.61,3.8Z"/></g></svg>