<svg xmlns="http://www.w3.org/2000/svg" viewBox="0 0 1024 1024"><defs><style>.cls-1{fill:#fff;}.cls-2{fill:#25b138;}</style></defs><g id="圖層_1" data-name="圖層 1"><circle class="cls-1" cx="512" cy="512" r="512"/></g><g id="Layer_2" data-name="Layer 2"><path class="cls-2" d="M366.11,379.33l-4.92,10.57a50.77,50.77,0,0,1-5.56,10.49,41.09,41.09,0,0,0-4.65,7.93l-5.11,11.12L341.31,424a8.73,8.73,0,0,0-1.09,2.92q0,3.27-2.37,8.66a70.85,70.85,0,0,0-3.65,10.12v2.18c0,.86-1,2.74-2.91,5.66v2.18c0,.49-1,2.74-3.1,6.75l.36,2.19a2.8,2.8,0,0,1-.36,1.09l-3.47,10.76A32.35,32.35,0,0,0,323,483.8c-.06,1.46-.15,2.8-.27,4v3.29l-.73,4.19.36,2.19v1.09a16.5,16.5,0,0,1-.36,3.83,7.53,7.53,0,0,0,2.91,4,1.35,1.35,0,0,1,1.1.46,1,1,0,0,0,.73.45l5.1-3.28a23.3,23.3,0,0,0,7.66-6.56l5.29-4.74,1.09-1.64,2.2-.37a38.94,38.94,0,0,0,3.37-4c1.27-1.7,2.16-2.55,2.65-2.55a1.08,1.08,0,0,1,.73.36h2.55a4,4,0,0,1,1.83.37l.36-.73v-3.1q0-6,3.83-6a31.41,31.41,0,0,1,4.93-5.83l.73-2.74q.36-1.46,3.92-4.74a29.74,29.74,0,0,0,6.12-8.2l6.38-7.48a27.75,27.75,0,0,0,1.1-2.73l1.46-1.46,3.1.36a1.46,1.46,0,0,0,.73-1.46,2.74,2.74,0,0,0-.37-1.09,5.11,5.11,0,0,1-.36-2.19q0-1.64,5.38-8.66t6.84-10.39c1-2.25,1.95-3.37,2.93-3.37.48,0,.88.42,1.18,1.27a1.62,1.62,0,0,0,1.55,1.28.32.32,0,0,0,.37-.37c0-.24-.19-.48-.55-.73a1.2,1.2,0,0,1-.55-1.09,14.12,14.12,0,0,1,2.56-7.75,34.35,34.35,0,0,0,3.37-6.11,14.54,14.54,0,0,1,1.55-3.19,17.4,17.4,0,0,0,1.65-3,8.77,8.77,0,0,1,2.18-3.1,9.74,9.74,0,0,0,2.1-2.46,5.76,5.76,0,0,1,2.1-2.09c.85-.49,1.65-2.25,2.37-5.29s3.35-6.5,7.85-10.39a3.15,3.15,0,0,1-1.09-2.19A6.25,6.25,0,0,1,434,367.3q0-1.28,6.48-13.5T451.17,335l.73-2.55,2.37-2.19,3.28-4.92,10-6.75c2.67-1.7,4.56-2.55,5.65-2.55a9.3,9.3,0,0,1,2.92.37,3.67,3.67,0,0,1,2-1.1,5.69,5.69,0,0,1,1.46.37h.73a6.43,6.43,0,0,1,2.55-1.1,4.56,4.56,0,0,1,2,.73H486c1.22,0,3.13.94,5.75,2.83s3.92,3.31,3.92,4.28l-.37,2.19.37,2.19q0,5.65-4.29,11.21c-2.85,3.71-4.53,6-5,6.84L484,346a19.94,19.94,0,0,0-.46,2.83,6.3,6.3,0,0,1-1.55,3.65,19.27,19.27,0,0,0-2.91,5.19,26.74,26.74,0,0,1-2.92,5.47v2.55l-8.57,20.61a22.14,22.14,0,0,1-1.73,3.92,3.28,3.28,0,0,1-3,1.73,5.5,5.5,0,0,0,1.37,1.55,2.1,2.1,0,0,1,.82,1.73c0,3.28-1.77,5.41-5.29,6.38a4.52,4.52,0,0,1,1.09,2.56l.91,2-3.46,6.2v3.1a19.65,19.65,0,0,0-2.55,5.11v3.09q0,.92-2.2,4.75l-1.65,3.09a22,22,0,0,0-1.09,2.92h-.37l.37,3.83c-.25.25-1,.85-2.2,1.82v3.65a6.29,6.29,0,0,0-1.83,4.92q0,1.47-2,4.56a11.64,11.64,0,0,1,.37,1.83,20.59,20.59,0,0,1-1.47,7.93,16.48,16.48,0,0,0-1.46,4.65v2.73a3.15,3.15,0,0,1,1.09,2.19,11.16,11.16,0,0,1-.55,2.1,10.72,10.72,0,0,0-.54,3.19c0,3.64.73,5.47,2.19,5.47l4.21-1.28a5.1,5.1,0,0,0,3.11-2.46,6,6,0,0,1,3-2.65,3.34,3.34,0,0,0,2.28-2.82q.18-1.92,3.56-2.74t14.49-11.94l5.66-3.28,1.45-2.55c1-1,2.59-2.86,4.84-5.66s4-4.19,5.38-4.19c3.64,0,5.47,2,5.47,6a52.83,52.83,0,0,1-1.74,7.11q-1.73,6.19-2.46,6.93a16.51,16.51,0,0,1-2.19,1.73,10.33,10.33,0,0,0-2.91,4.1q-8.4,8.21-12.4,9.3a44.3,44.3,0,0,0-4,3.37,30.08,30.08,0,0,1-4.83,3.74,22,22,0,0,0-3.92,2.92,12.94,12.94,0,0,1-4.75,2.73l-1.45.73a2.88,2.88,0,0,0-1.1-.36c-.73,0-1.55.55-2.47,1.64a8.9,8.9,0,0,1-4.11,2.55,12.37,12.37,0,0,0-4.3,2.28,4.54,4.54,0,0,1-2.29,1.37L440,498.57c-1.46,1.34-2.38,2-2.74,2l-2.2-1.1a4.08,4.08,0,0,0-2-1.09,9.75,9.75,0,0,1-3-1.64,39.23,39.23,0,0,0-3.75-2.55c-1.58-1-3-3.22-4.37-6.75l-1.46-1.82c-1.22-2.07-1.83-3.34-1.83-3.83,0-.73.12-2.19.37-4.38v-1.09a29.72,29.72,0,0,0-.73-5.2,28.93,28.93,0,0,1-.73-5.38l4.38-24.25-.73-4.37q0-2.75,2.28-7.39t4.46-20.69Q425,418,423.54,418l-2.74-.36a1.46,1.46,0,0,0-.73,1.46,13.92,13.92,0,0,0,.73,3.1v2.55q0,3.47-6.75,5.65a2.64,2.64,0,0,1-.37,1.09q2,.91,2,1.83a7.56,7.56,0,0,1-3.37,6.56,16.88,16.88,0,0,0-4.47,4.1q-1.1,1.74-2,1.74l-1.1-1.64h-.36l-1.82,3.46a5.47,5.47,0,0,1,1.09,1.82q0,.74-3.74,6.38t-4.47,5.66l-5.29,5.1-.73,1.64V470a3.89,3.89,0,0,1-.73,1.46l-7.11,10-2.19,4.2-7.48,11.12a10.14,10.14,0,0,0-4,2.73l-1.27.73q0,2.93-4.75,5.47c-1.09,3.28-2.61,5.54-4.56,6.75a20.89,20.89,0,0,0-4.38,3.46l-3.46,2.19-4.38,3.65-4.92,1.64-2.2-1.64c-1,2.8-1.82,4.19-2.55,4.19l-4.19-.73-3.47.73q-4.38,0-11.4-5.83t-8.3-7.66l-2.19-2.92a4.9,4.9,0,0,1-1.46-2.28c-.36-1-1.52-2.28-3.46-3.74l-1.82-2.91v-2.37q-4.38-6.39-4.83-8.3a46.66,46.66,0,0,1-.46-8.48V480l.73-2.55-.37-4.19a28.57,28.57,0,0,1,1.74-8.21,42,42,0,0,0,1.73-6v-1.1l-.55-1.09,2.37-7.66a17.62,17.62,0,0,1,1.82-4.92c.49-.61.85-2.71,1.1-6.29s2-5.38,5.29-5.38a2.85,2.85,0,0,1,1.09.36,2,2,0,0,0,1.46-2.18h-.73c-1,0-1.46-.67-1.46-2a6.61,6.61,0,0,1,1.09-4,6.88,6.88,0,0,0,1.1-4.19q0-3.29,3-6.66c2-2.25,3-3.49,3-3.74q0-2.73,2.82-7.93a100.71,100.71,0,0,0,4.56-9.39,36.2,36.2,0,0,1,4.1-7.47,25.61,25.61,0,0,0,3.47-6.39,16.16,16.16,0,0,1,4.37-6.19l2-3.65a53.63,53.63,0,0,1,4-5.65,10.63,10.63,0,0,0,2.28-5.38,5.44,5.44,0,0,1,3.19-4.47q2.73-1.28,3.1-3.19a12.54,12.54,0,0,1,1.37-3.74,13,13,0,0,0,1.36-3.55,9.7,9.7,0,0,1,2.19-3.92,21.51,21.51,0,0,0,3.37-6.66q1.56-4.47,4.47-4.47l3.65.37.36-1.28a3.48,3.48,0,0,0-.91-1.46,3.37,3.37,0,0,1-.91-2.18q0-5.3,3.46-5.29c.73,0,1.58.79,2.56,2.37q1.28-10.75,1.55-11.4a3.44,3.44,0,0,0,.27-1.36l.36-1.83a4.4,4.4,0,0,0,.37-2,6.38,6.38,0,0,0-1.37-3.28q-1.36-2-2.28-2c-.12,0-1.52.3-4.19.91l-2.19-2.19c-1.22,2.68-2.43,4-3.65,4l-3.1-1.09q-6.37,4-8.2,4l-2.92-1.09h-.36q-1.1,0-2.28,2.64t-4.83,2.65H336.5c-1.82,2.18-3.34,3.43-4.55,3.73A9.93,9.93,0,0,0,328,314.6a12.59,12.59,0,0,1-3.56,2.37,20.74,20.74,0,0,0-4.92,3.65l-1.83,1.09c-2.18,1.34-3.4,2.65-3.64,3.92a6.91,6.91,0,0,1-2,3.56q-6.57,4.74-6.57,7.84l.37,3.28-.37,4.74q0,2-3.37,4.83t-5.55,2.83q-13.12,0-13.13-7.84l.73-5.29-.36-4.19.36-3.65q0-4.19,5-7.93a71,71,0,0,0,6.85-5.56l7.11-3.65a16,16,0,0,0,3.65-3.74q1.28-1.91,8-4.74t9.86-5.56a27.66,27.66,0,0,1,9.12-4.83,73.32,73.32,0,0,0,9.22-3.74,14.23,14.23,0,0,1,3.92-1.64l2.18.37a18.2,18.2,0,0,0,3.92-2.28,7.67,7.67,0,0,1,4.65-1.55l22.43-5.11q3.47-.9,13.13,4t9.66,21.7q0,3.47-5.56,14.95a121.68,121.68,0,0,1-12.31,20.42L384,345.6l-4.92,8.57-2.92,6.38q-2,3.65-4.2,8.57l-3.28,4.37A22.11,22.11,0,0,0,366.11,379.33Z"/><path class="cls-2" d="M525.84,440l-4.92-.36a11.79,11.79,0,0,0-2.55,2.55,17.55,17.55,0,0,1-5.56,4.1q-3.73,1.92-4.46,3.74a13.75,13.75,0,0,1-1.46,2.83c-.49.67-1.07,1.55-1.73,2.64a9.69,9.69,0,0,1-2.46,2.74,7.49,7.49,0,0,0-2.37,3.37,3.3,3.3,0,0,1-3.29,2.28q-7.83,0-7.83-10,0-2.91,3.64-10.76t8-9.2a53.75,53.75,0,0,0,6.65-2.47q2.28-1.08,4.2-1.91t10.11-6.65q.38-.37,9.3-2.74l6.75-4a5,5,0,0,1,2.55-2,11.05,11.05,0,0,0,2.92-1.09l3.1-.36a12.79,12.79,0,0,1,6.38-3.65l5.1-2.19a62.56,62.56,0,0,1,13.13-5.29l1.09-.73a4.63,4.63,0,0,1,1.1-.73l4.92.37q2.19,0,2.92-3.46a2.69,2.69,0,0,1,1.09-.37l4.56.37a5.75,5.75,0,0,0,1.82-.92,9.82,9.82,0,0,1,3.38-1.27,5.16,5.16,0,0,0,3.19-2,3.55,3.55,0,0,1,2.73-1.64H601q1.46,0,3.47-2.83a31.67,31.67,0,0,1,5.47-5.74,3.12,3.12,0,0,0,1.45.37c.73,0,1.4-.83,2-2.47a9.26,9.26,0,0,1,2.64-3.92,20.2,20.2,0,0,0,3.92-5.19q2.19-3.73,4.11-4.74a13.25,13.25,0,0,0,3.64-2.92,5.72,5.72,0,0,1,3.56-2.1l.36-.36v-2.37c0-1.94,1.7-3.77,5.11-5.47a11.18,11.18,0,0,0,2-1.46v-2.73a9.09,9.09,0,0,1,1.82-2.47c1.22-1.39,1.83-2.4,1.83-3q0-1.45,5.74-7.74t8.21-7.75q2.46-1.45,5.92-7.3l2.55-.91a52.89,52.89,0,0,1,6.39-7.38,25.28,25.28,0,0,0,4.74-5.93l2.73-3.1a1.43,1.43,0,0,0,1.1-1.46c0-.73-.73-1.09-2.19-1.09a23.06,23.06,0,0,1-6.75-1.46l-3.1,1.1-3.28-.37-4.56,2.19-4.37-.37q-4.56,2.74-6.38,3.1a21.9,21.9,0,0,0-2.83.73c-.67.25-1.43.49-2.28.73a17,17,0,0,0-3.46,1.64,12,12,0,0,1-6,1.28,6.11,6.11,0,0,0-3.55,1.73,50.67,50.67,0,0,1-6.48,4.29.32.32,0,0,1-.36.36l-5.29-.36q-8.21,8.21-10.39,8.2l-4.2-.73a32.24,32.24,0,0,0-9.93,5.47,39.88,39.88,0,0,1-6.84,4.92l-3.28-.36a63.21,63.21,0,0,1-5.56,5.2,7.35,7.35,0,0,0-2.19,2.82,3.64,3.64,0,0,1-3.56,2l-4,3.1c0,1.82-1.4,3.83-4.19,6l-.37.73v4c0,1-.94,2.27-2.82,3.92s-3.32,2.46-4.29,2.46q-3.27,0-6.65-4.29a14.12,14.12,0,0,1-3.37-8.84,15.51,15.51,0,0,1,1.09-3.65l1.82-7.84q1.46-5.64,18.78-11.3l2.92-2.19q3.65-2.19,5.29-2.19l2.18-.73,1.1-2.73a23.14,23.14,0,0,1,3.74-1.83,18.56,18.56,0,0,0,4.83-2.91,23.41,23.41,0,0,1,6.38-3.47l2.92-1.82h3.83q8.56-8.56,39.38-17.69t50.14-9.11q5.28,0,10.48,6.65t5.2,12.31q0,3.46-4,7.11-2.93,1.46-4.38,6.65a13,13,0,0,1-4.92,7.57q-7.31,6.39-7.84,7.84l-1.64,3.65a4.57,4.57,0,0,1-2.37,2.37c-1.1.49-2.13,1.82-3.1,4s-3.47,3.83-7.48,4.92q-.36.19-.54,2.28t-4.38,4.47l-2.19,1.82c-1.21,3.89-2.37,6.14-3.46,6.75l-1.83,1.82q-2.55,8.94-8.38,8.94c-.85,0-1.61,1.06-2.28,3.19s-2.46,4-5.38,5.74v1.09q7.85-2.55,11.3-2.55l2.56-.36,1.09-1.1a3.9,3.9,0,0,0,2.19.73q2.37,0,5.29-2.55l2.92.36a1.8,1.8,0,0,1,1.28-.36l9.33-2.74q4-.72,9-1.82h1.83q6.23,0,9.7,3.83a13.32,13.32,0,0,1,3.48,9.3l-.73,5.1.36,2.74q0,1.1-3.47,3.28l-1.83,1.46a14,14,0,0,1-9.31,3.83q-8.4,0-10-4.19c0-.49-.82-.79-2.47-.92a9,9,0,0,1-3.74-.91,4.58,4.58,0,0,0-2-.73,17.86,17.86,0,0,1-4.94-.73,12.58,12.58,0,0,1-7.12,2.19h-1.09l-2.19-.73L651,397.74a2.83,2.83,0,0,1-1.1-.36,3.28,3.28,0,0,0-1.46-.36,4.86,4.86,0,0,0-2.46.82,5.53,5.53,0,0,1-2.83.82l-2.56-.92a7.59,7.59,0,0,1-2.46.73c-.92.13-1.92.92-3,2.37s-2.25,2.19-3.46,2.19c-2.08,0-4.08,2-6,6l-1.1,1.09h-1.09c-.86,0-1.47,1-1.83,3s-.79,3.25-1.28,3.74c-1.95.24-3.13.88-3.56,1.91s-1.06,3.13-1.91,6.29l-1.65,3.29L611,429.65a36.39,36.39,0,0,1-6.66,13.13,84.33,84.33,0,0,0-7.12,10.3,18.3,18.3,0,0,1-4.2,5.56,8,8,0,0,0-2.65,4.83,10.26,10.26,0,0,1-1.83,4.56q-1.1,1.19-4.38,7.93l-5.66,9.67-2.37,5.28c-.85,1.71-2,2.56-3.29,2.56-.73,0-1.09.61-1.09,1.82v3.65q0,.72-3.65,8.75l-1.27,3.65a5,5,0,0,1-2.18,1.64c-1.22.61-2.07,2.18-2.55,4.74s-1.19,4.19-2.09,4.92-1.49,2.28-1.73,4.65a5.07,5.07,0,0,1-3.64,4.65,42.93,42.93,0,0,1-.64,4.37c-.18.73-1.24,1.52-3.19,2.37h-.36l1.09,6.2c0,.85-.24,1.28-.73,1.28-1.21.73-1.82,1.34-1.82,1.82l.73,2.19v.73a11.11,11.11,0,0,1-1.46,3.46v.37a66.56,66.56,0,0,0,1.46,6.74l-1.09,2.19q0,3.29,2.91,3.29l5.64-3.65c1.7,0,2.55,2,2.55,6l.55,1.82c-1.1.73-1.64,1.33-1.64,1.82a4.35,4.35,0,0,0,.37,1.64,4.56,4.56,0,0,1,.36,1.64q0,6-10.74,6h-.73a5.51,5.51,0,0,1-2.19-.73l-3.83.37q-2.19,0-7.93-4.2T525.2,565a45.26,45.26,0,0,1-3-14.86l5.11-21a3.26,3.26,0,0,0,.73-2.37A7.89,7.89,0,0,1,529.3,523l2.19-6q4.92-8.76,6-9.48c.73-.49,1.76-1.1,3.1-1.83a7.72,7.72,0,0,0,2.73-2.19c-2.19-.72-3.28-1.39-3.28-2q0-.56,2.83-5.47t4.65-5.29a.32.32,0,0,0,.36-.36,6.08,6.08,0,0,0-.36-1.46v-.37a24.41,24.41,0,0,1,2.18-4L549,481.8a10.13,10.13,0,0,1,2.1-2.19c.91-.73,2.16-2.76,3.74-6.11s2.79-5.22,3.65-5.65a5.11,5.11,0,0,0,1.82-1.37l-.55-5.1c0-.49.43-1.16,1.28-2l1.09-2.19a14,14,0,0,1,1.82-2.73,32.25,32.25,0,0,0,2.92-4.38l1.28-1.46a34.11,34.11,0,0,0,2.19-4.55c0-2.43,1.33-5.05,4-7.84l6.93-10.76q7.29-11.11,7.29-12.76v-.37q-4,0-10.39,3.56t-7.11,3.55l-4.2-1.09c-.48.24-2.43,2.12-5.83,5.65a28.46,28.46,0,0,0-16.59,5.65l-.73.37h-3.65l-.73.36-1.09,1.82a30.32,30.32,0,0,0-4.92,2.47,31.85,31.85,0,0,1-4.92,2.46Z"/><path class="cls-2" d="M237.37,676.66l-1.6,3.43a15.65,15.65,0,0,1-1.8,3.39,13.51,13.51,0,0,0-1.5,2.57l-1.65,3.6-1.48,1.47a2.77,2.77,0,0,0-.35,1,7.46,7.46,0,0,1-.77,2.8,22.68,22.68,0,0,0-1.18,3.28v.71a5.21,5.21,0,0,1-.95,1.83v.71a12.3,12.3,0,0,1-1,2.18l.12.71a.89.89,0,0,1-.12.35L224,708.12a10.75,10.75,0,0,0-.56,2.37q0,.71-.09,1.29v1.07l-.24,1.35.12.71v.36a5.24,5.24,0,0,1-.12,1.24,2.38,2.38,0,0,0,.95,1.29.41.41,0,0,1,.35.15.33.33,0,0,0,.24.15l1.65-1.06a7.58,7.58,0,0,0,2.48-2.13l1.71-1.53.36-.53.71-.12a13.35,13.35,0,0,0,1.09-1.3c.41-.55.7-.83.86-.83a.35.35,0,0,1,.23.12h.83a1.29,1.29,0,0,1,.59.12l.12-.24v-1c0-1.3.41-2,1.24-2a10,10,0,0,1,1.59-1.89l.24-.88a4.37,4.37,0,0,1,1.27-1.54,9.52,9.52,0,0,0,2-2.65l2.07-2.42c.08-.16.19-.46.35-.89l.47-.47,1,.12a.48.48,0,0,0,.23-.48,1.08,1.08,0,0,0-.11-.35,1.62,1.62,0,0,1-.12-.71,8.52,8.52,0,0,1,1.74-2.8,18.7,18.7,0,0,0,2.21-3.37c.32-.72.64-1.09,1-1.09q.24,0,.39.42a.51.51,0,0,0,.5.41.11.11,0,0,0,.12-.12q0-.12-.18-.24a.38.38,0,0,1-.18-.35,4.6,4.6,0,0,1,.83-2.51,11,11,0,0,0,1.09-2,4.7,4.7,0,0,1,.5-1,5.06,5.06,0,0,0,.53-1,3,3,0,0,1,.71-1,3,3,0,0,0,.68-.79,1.92,1.92,0,0,1,.68-.68c.28-.16.53-.73.77-1.71a7.27,7.27,0,0,1,2.54-3.37,1,1,0,0,1-.35-.71,2,2,0,0,1,.35-.82,26.91,26.91,0,0,1,2.1-4.37c1.39-2.64,2.55-4.66,3.45-6.08l.24-.83.77-.7,1.06-1.6,3.25-2.18a4.34,4.34,0,0,1,1.83-.83,3,3,0,0,1,.94.12,1.15,1.15,0,0,1,.65-.35,2.15,2.15,0,0,1,.47.11h.24a2.13,2.13,0,0,1,.82-.35,1.41,1.41,0,0,1,.65.24h.36a4,4,0,0,1,1.86.91c.84.61,1.27,1.07,1.27,1.39l-.12.71.12.7a6,6,0,0,1-1.39,3.63,25.61,25.61,0,0,0-1.62,2.22l-.77.35a6.36,6.36,0,0,0-.15.92,2.09,2.09,0,0,1-.5,1.18,5.9,5.9,0,0,0-.94,1.68,8.37,8.37,0,0,1-.95,1.77v.83l-2.77,6.67a7.83,7.83,0,0,1-.56,1.27,1.08,1.08,0,0,1-1,.56,2.11,2.11,0,0,0,.44.5.67.67,0,0,1,.27.56,2,2,0,0,1-1.71,2.06,1.5,1.5,0,0,1,.35.83l.3.65-1.12,2v1a6.09,6.09,0,0,0-.83,1.65v1a5.36,5.36,0,0,1-.71,1.53l-.53,1a6.78,6.78,0,0,0-.36.94h-.12l.12,1.24c-.08.08-.32.27-.71.59v1.18a2,2,0,0,0-.59,1.59,3.32,3.32,0,0,1-.65,1.48,3,3,0,0,1,.11.59,6.65,6.65,0,0,1-.47,2.57,5.18,5.18,0,0,0-.47,1.5v.89a1,1,0,0,1,.35.71,3.51,3.51,0,0,1-.18.67,3.75,3.75,0,0,0-.17,1c0,1.18.23,1.77.71,1.77l1.36-.42a1.67,1.67,0,0,0,1-.79,1.88,1.88,0,0,1,1-.86,1.07,1.07,0,0,0,.74-.91c0-.42.43-.71,1.15-.89s2.3-1.46,4.7-3.86l1.83-1.07.47-.82q.46-.48,1.56-1.83c.73-.91,1.31-1.36,1.74-1.36q1.77,0,1.77,2a16.44,16.44,0,0,1-.56,2.3,8.61,8.61,0,0,1-.79,2.24,5,5,0,0,1-.71.56,3.36,3.36,0,0,0-.95,1.33c-1.81,1.77-3.14,2.77-4,3a14.17,14.17,0,0,0-1.3,1.09,9.53,9.53,0,0,1-1.56,1.21,6.87,6.87,0,0,0-1.27.95,4.19,4.19,0,0,1-1.54.88l-.47.24a.89.89,0,0,0-.35-.12,1.18,1.18,0,0,0-.8.53,2.87,2.87,0,0,1-1.33.83,4,4,0,0,0-1.4.74,1.46,1.46,0,0,1-.74.44l-.94-.41c-.48.43-.77.65-.89.65l-.71-.36a1.28,1.28,0,0,0-.66-.35,3.27,3.27,0,0,1-1-.53,10.89,10.89,0,0,0-1.22-.83,4.33,4.33,0,0,1-1.41-2.18l-.47-.59a4,4,0,0,1-.59-1.24c0-.24,0-.71.11-1.42v-.35a10,10,0,0,0-.23-1.69,9.18,9.18,0,0,1-.24-1.74l1.42-7.85-.24-1.42a6,6,0,0,1,.74-2.39,27.5,27.5,0,0,0,1.45-6.7c-.63,1.93-1.11,2.9-1.42,2.9l-.89-.12a.47.47,0,0,0-.23.47,4.2,4.2,0,0,0,.23,1v.83c0,.75-.73,1.36-2.18,1.83a.92.92,0,0,1-.12.36c.43.19.65.39.65.58a2.45,2.45,0,0,1-1.09,2.13,5.37,5.37,0,0,0-1.45,1.33c-.24.37-.45.56-.65.56l-.35-.53h-.12l-.59,1.12a1.74,1.74,0,0,1,.35.59,9.7,9.7,0,0,1-1.21,2.07c-.81,1.21-1.29,1.82-1.45,1.82l-1.71,1.66-.24.53V706a1.23,1.23,0,0,1-.23.47l-2.3,3.25-.71,1.36-2.42,3.6a3.17,3.17,0,0,0-1.3.88l-.42.24q0,.94-1.53,1.77a3.92,3.92,0,0,1-1.48,2.18,7.08,7.08,0,0,0-1.42,1.12l-1.12.71-1.42,1.18-1.59.53-.71-.53c-.32.91-.59,1.36-.83,1.36l-1.35-.24-1.13.24q-1.41,0-3.69-1.89a19.13,19.13,0,0,1-2.68-2.48l-.71-.94a1.55,1.55,0,0,1-.47-.74,3.22,3.22,0,0,0-1.13-1.21l-.59-.94v-.77a12,12,0,0,1-1.56-2.69,15.08,15.08,0,0,1-.15-2.74v-.47l.24-.83-.12-1.36a9.34,9.34,0,0,1,.56-2.65,14.59,14.59,0,0,0,.56-1.95v-.36l-.18-.35.77-2.48a5.46,5.46,0,0,1,.59-1.59,5.22,5.22,0,0,0,.36-2c.07-1.16.65-1.74,1.71-1.74a.89.89,0,0,1,.35.12c.32-.08.47-.32.47-.71h-.23c-.32,0-.47-.22-.47-.65a2.11,2.11,0,0,1,.35-1.3,2.21,2.21,0,0,0,.35-1.36,3.3,3.3,0,0,1,1-2.15,6.44,6.44,0,0,0,1-1.21,6.12,6.12,0,0,1,.92-2.57,30.39,30.39,0,0,0,1.47-3,12.4,12.4,0,0,1,1.33-2.42,8.27,8.27,0,0,0,1.12-2.06,5.3,5.3,0,0,1,1.42-2l.65-1.18a15.87,15.87,0,0,1,1.3-1.83,3.34,3.34,0,0,0,.73-1.74,1.78,1.78,0,0,1,1-1.45,1.55,1.55,0,0,0,1-1,4.2,4.2,0,0,1,.44-1.21,4.15,4.15,0,0,0,.45-1.15,3,3,0,0,1,.7-1.27,6.92,6.92,0,0,0,1.1-2.16q.49-1.44,1.44-1.44l1.18.12.12-.42c0-.08-.1-.23-.29-.47a1.1,1.1,0,0,1-.3-.71c0-1.14.37-1.71,1.12-1.71.24,0,.51.26.83.77.27-2.32.44-3.55.5-3.69a1.12,1.12,0,0,0,.09-.44l.12-.59a1.48,1.48,0,0,0,.12-.65,2.08,2.08,0,0,0-.45-1.07c-.29-.43-.54-.65-.74-.65l-1.35.3-.71-.71c-.39.87-.79,1.3-1.18,1.3l-1-.35a7.63,7.63,0,0,1-2.65,1.29l-1-.35h-.11c-.24,0-.49.29-.74.86a1.54,1.54,0,0,1-1.57.85h-.59a3.42,3.42,0,0,1-1.47,1.21,3.21,3.21,0,0,0-1.27.74,4.3,4.3,0,0,1-1.15.77,6.62,6.62,0,0,0-1.6,1.18l-.59.35c-.7.43-1.1.86-1.18,1.27a2.22,2.22,0,0,1-.64,1.15c-1.42,1-2.13,1.87-2.13,2.54l.12,1.06-.12,1.54c0,.43-.36.95-1.09,1.56a3.18,3.18,0,0,1-1.8.92q-4.25,0-4.25-2.54l.24-1.71-.12-1.36.12-1.18a3.32,3.32,0,0,1,1.62-2.57,24,24,0,0,0,2.22-1.8l2.3-1.18a5,5,0,0,0,1.18-1.21,6.75,6.75,0,0,1,2.6-1.53,11.71,11.71,0,0,0,3.19-1.81,8.91,8.91,0,0,1,3-1.56,24.73,24.73,0,0,0,3-1.21,4.72,4.72,0,0,1,1.27-.53l.71.12a6.16,6.16,0,0,0,1.27-.74,2.48,2.48,0,0,1,1.5-.5l7.26-1.66q1.13-.29,4.25,1.3t3.13,7q0,1.13-1.8,4.84a39.91,39.91,0,0,1-4,6.61l-.36.88-1.59,2.78-.95,2.06c-.43.79-.88,1.72-1.35,2.78l-1.07,1.42A7.22,7.22,0,0,0,237.37,676.66Z"/><path class="cls-2" d="M319.3,696.32l-1.59-.12a3.54,3.54,0,0,0-.83.83,5.76,5.76,0,0,1-1.8,1.33,2.8,2.8,0,0,0-1.44,1.21,4.41,4.41,0,0,1-.48.91c-.16.22-.34.5-.56.86a3.18,3.18,0,0,1-.79.88,2.48,2.48,0,0,0-.77,1.09,1.06,1.06,0,0,1-1.06.74c-1.69,0-2.54-1.08-2.54-3.25a10.47,10.47,0,0,1,1.18-3.48c.79-1.69,1.65-2.68,2.6-3a17.33,17.33,0,0,0,2.15-.79c.49-.24.95-.45,1.36-.62a30.11,30.11,0,0,0,3.27-2.16,26.07,26.07,0,0,1,3-.89l2.18-1.29a1.55,1.55,0,0,1,.82-.65,3.63,3.63,0,0,0,1-.36l1-.12a4.18,4.18,0,0,1,2.07-1.18l1.65-.7a20.61,20.61,0,0,1,4.25-1.72l.35-.23a1.4,1.4,0,0,1,.36-.24l1.59.12c.47,0,.79-.37.95-1.12a.84.84,0,0,1,.35-.12l1.48.12a1.87,1.87,0,0,0,.59-.3,3.29,3.29,0,0,1,1.09-.41,1.65,1.65,0,0,0,1-.65,1.16,1.16,0,0,1,.89-.53h1c.32,0,.69-.3,1.12-.91a10.07,10.07,0,0,1,1.77-1.86,1.05,1.05,0,0,0,.48.11c.23,0,.45-.26.64-.79a3,3,0,0,1,.86-1.27,6.92,6.92,0,0,0,1.27-1.68,3.91,3.91,0,0,1,1.33-1.54,4.35,4.35,0,0,0,1.18-.94,1.81,1.81,0,0,1,1.15-.68l.12-.12v-.77q0-.94,1.65-1.77a3.51,3.51,0,0,0,.65-.47v-.89a2.91,2.91,0,0,1,.59-.79,2,2,0,0,0,.59-1c0-.31.62-1.15,1.86-2.51a15.43,15.43,0,0,1,2.65-2.5,6.93,6.93,0,0,0,1.92-2.36l.83-.3a17.44,17.44,0,0,1,2.06-2.39,7.86,7.86,0,0,0,1.54-1.92l.88-1a.47.47,0,0,0,.36-.47c0-.24-.24-.36-.71-.36a7.3,7.3,0,0,1-2.18-.47l-1,.35-1.06-.11-1.47.7-1.42-.11a8.06,8.06,0,0,1-2.07,1,6.32,6.32,0,0,0-.91.24l-.74.23a5.81,5.81,0,0,0-1.12.53,3.82,3.82,0,0,1-1.95.42,1.94,1.94,0,0,0-1.15.56,17.07,17.07,0,0,1-2.09,1.38.11.11,0,0,1-.12.12l-1.71-.12q-2.67,2.66-3.37,2.66l-1.36-.24a10.72,10.72,0,0,0-3.21,1.77,13,13,0,0,1-2.22,1.6l-1.06-.12a18.47,18.47,0,0,1-1.8,1.68,2.37,2.37,0,0,0-.71.92,1.17,1.17,0,0,1-1.15.65l-1.3,1c0,.59-.45,1.24-1.36,1.95l-.11.23v1.3c0,.32-.31.74-.92,1.27a2.63,2.63,0,0,1-1.39.8,2.94,2.94,0,0,1-2.15-1.39,4.56,4.56,0,0,1-1.09-2.86,5.26,5.26,0,0,1,.35-1.18l.59-2.54c.32-1.22,2.34-2.44,6.08-3.66l.95-.71a4,4,0,0,1,1.71-.71l.71-.23.35-.89a9.16,9.16,0,0,1,1.21-.59,5.9,5.9,0,0,0,1.56-.94,7.53,7.53,0,0,1,2.07-1.12l.95-.59H344q2.77-2.77,12.75-5.73T373,645.44c1.14,0,2.27.72,3.39,2.15a6.7,6.7,0,0,1,1.68,4,3.24,3.24,0,0,1-1.3,2.3,3.19,3.19,0,0,0-1.41,2.15,4.19,4.19,0,0,1-1.6,2.45,13.86,13.86,0,0,0-2.54,2.54l-.53,1.18a1.43,1.43,0,0,1-.76.77,2.44,2.44,0,0,0-1,1.3,3.39,3.39,0,0,1-2.42,1.59c-.08,0-.14.29-.17.74s-.51.93-1.42,1.45l-.71.59c-.39,1.26-.77,2-1.12,2.18l-.59.59c-.55,1.93-1.46,2.89-2.72,2.89-.27,0-.52.35-.73,1a3.57,3.57,0,0,1-1.74,1.85v.36a13.74,13.74,0,0,1,3.66-.83l.82-.12.36-.35a1.23,1.23,0,0,0,.7.24,2.78,2.78,0,0,0,1.72-.83l.94.12a.59.59,0,0,1,.42-.12l3-.88c.87-.16,1.83-.36,2.9-.6h.59a4,4,0,0,1,3.14,1.24,4.33,4.33,0,0,1,1.13,3l-.24,1.66.12.88c0,.24-.38.59-1.12,1.06l-.59.48a4.58,4.58,0,0,1-3,1.24c-1.81,0-2.9-.46-3.25-1.36,0-.16-.27-.26-.8-.3a2.93,2.93,0,0,1-1.21-.29,1.45,1.45,0,0,0-.65-.24,6.18,6.18,0,0,1-1.6-.23,4,4,0,0,1-2.3.7h-.36l-.7-.23-1.13.83a.84.84,0,0,1-.35-.12,1.07,1.07,0,0,0-.48-.12,1.63,1.63,0,0,0-.79.26,1.75,1.75,0,0,1-.92.27l-.83-.29a2.7,2.7,0,0,1-.79.23,1.69,1.69,0,0,0-1,.77,1.46,1.46,0,0,1-1.12.71c-.67,0-1.32.65-1.95,1.94l-.36.36h-.35c-.28,0-.48.32-.59,1a2.56,2.56,0,0,1-.42,1.21c-.63.08-1,.29-1.15.62a19.46,19.46,0,0,0-.62,2l-.53,1.06-.71.41a11.82,11.82,0,0,1-2.16,4.25,27.32,27.32,0,0,0-2.3,3.34,6.12,6.12,0,0,1-1.36,1.8,2.57,2.57,0,0,0-.86,1.56,3.46,3.46,0,0,1-.59,1.48,15.24,15.24,0,0,0-1.42,2.57l-1.83,3.13-.77,1.71c-.28.55-.63.82-1.07.82-.23,0-.35.2-.35.59v1.18a20.3,20.3,0,0,1-1.18,2.84l-.41,1.18a1.65,1.65,0,0,1-.71.53,2,2,0,0,0-.82,1.53,2.82,2.82,0,0,1-.68,1.6,2.16,2.16,0,0,0-.56,1.5,1.64,1.64,0,0,1-1.18,1.51,12.47,12.47,0,0,1-.21,1.41c-.05.24-.4.5-1,.77h-.11l.35,2c0,.27-.08.41-.24.41-.39.24-.59.43-.59.59l.24.71v.24a3.83,3.83,0,0,1-.47,1.12v.12a19.77,19.77,0,0,0,.47,2.18l-.35.71c0,.71.31,1.06.94,1.06l1.83-1.18c.55,0,.82.65.82,1.95l.18.59c-.36.23-.53.43-.53.59a1.62,1.62,0,0,0,.11.53,1.43,1.43,0,0,1,.12.53c0,1.3-1.16,2-3.47,2h-.24a1.81,1.81,0,0,1-.71-.24l-1.24.12a5.93,5.93,0,0,1-2.57-1.36,8.38,8.38,0,0,1-2.83-4.1,14.63,14.63,0,0,1-1-4.81l1.65-6.79a1,1,0,0,0,.24-.77,2.53,2.53,0,0,1,.41-1.24l.71-1.94a15.92,15.92,0,0,1,1.95-3.07,10.68,10.68,0,0,1,1-.59,2.41,2.41,0,0,0,.88-.71c-.7-.24-1.06-.45-1.06-.65a10.18,10.18,0,0,1,.92-1.77q.92-1.59,1.5-1.71a.11.11,0,0,0,.12-.12,1.82,1.82,0,0,0-.12-.47V712a8.28,8.28,0,0,1,.71-1.3l-.24-.88a3.2,3.2,0,0,1,.68-.71,6.5,6.5,0,0,0,1.21-2,4.69,4.69,0,0,1,1.18-1.83,1.53,1.53,0,0,0,.59-.44l-.17-1.66a1.09,1.09,0,0,1,.41-.64l.35-.71a4.74,4.74,0,0,1,.59-.89,10.26,10.26,0,0,0,.95-1.41l.41-.48a10.18,10.18,0,0,0,.71-1.47,3.84,3.84,0,0,1,1.3-2.54l2.24-3.48q2.36-3.6,2.36-4.14v-.11a7.39,7.39,0,0,0-3.36,1.15,13.11,13.11,0,0,1-2.3,1.15l-1.36-.35a16.18,16.18,0,0,0-1.89,1.82,9.27,9.27,0,0,0-5.37,1.83l-.24.12H323.9l-.23.12-.36.59a9.79,9.79,0,0,0-1.59.8,9.61,9.61,0,0,1-1.59.79Z"/><path class="cls-2" d="M395.14,715.92l-2.78,2.42a.67.67,0,0,0-.47-.24c-.39,0-.88.35-1.45,1.06s-1,1.06-1.21,1.06l-.59-.11a7.58,7.58,0,0,1-2.13,1.29,8.89,8.89,0,0,0-1.56.65,4.39,4.39,0,0,1-1.66.54,1.87,1.87,0,0,0-1.21.5,3.82,3.82,0,0,1-2.3.44l-.94-.12a3.35,3.35,0,0,1-1,.36,1.51,1.51,0,0,1-1-.51,2,2,0,0,0-1.16-.56,2,2,0,0,1-1.27-.82,4.35,4.35,0,0,0-1.21-1.07,2.39,2.39,0,0,1-.91-.82l-.83-.71a6.92,6.92,0,0,1-1.95-2.6,7.24,7.24,0,0,1-.94-2.95v-.23l.12-1.13-.12-1.29a4.06,4.06,0,0,0,.59-1v-1.89l1.41-4.72c.08-.2-.07-.45-.47-.77a2.44,2.44,0,0,1-1.18,1.07,1.14,1.14,0,0,0-.8.82c-.14.44-.37.65-.69.65l-.71-.23a5.78,5.78,0,0,0-.54,1.21,1.46,1.46,0,0,1-1.42,1.09c-.72,0-1.07-.28-1.07-.83l.12-1.06-.36-1.48a4.72,4.72,0,0,1,.94-1.86,3.67,3.67,0,0,1,1.75-1.59,2.33,2.33,0,0,0,1.36-1.12,8.61,8.61,0,0,1,2.45-2.21,3,3,0,0,0,1.84-1.54,6.64,6.64,0,0,1,2.15-1.06,4.22,4.22,0,0,0,2-1.21,16.27,16.27,0,0,1,4-2.48,12.84,12.84,0,0,1,4.88-1.68,4.46,4.46,0,0,0,1.3-.27l1.54-.47a7.19,7.19,0,0,0,1.48-.65,2.76,2.76,0,0,1,1.24-.44l1.72.59a14.67,14.67,0,0,1,2.3.76,5.69,5.69,0,0,0,1.21.51,13.9,13.9,0,0,1,2.25,1,2.52,2.52,0,0,1,1.15,2.42,11.37,11.37,0,0,0-1,1.59c0,.16.45.4,1.36.71.31.59.79,1.36,1.42,2.3l.65,2.07.11,4.84-.11.47c-.44.4-.65.65-.65.77l.18,1.18-.48,1.65a1.48,1.48,0,0,1-.59,1,1.08,1.08,0,0,0-.53.59l-.35.47a10.34,10.34,0,0,0-.51,1,4.49,4.49,0,0,1-.85,1.33,2,2,0,0,0-.59,1.12,1.37,1.37,0,0,1-.59,1,2,2,0,0,0-.68.61A1.71,1.71,0,0,1,395.14,715.92Zm-18.34,1.53.23,1.36.12.12h.94l.3.11a9.66,9.66,0,0,0,1.76.24,4.35,4.35,0,0,0,2.92-.92,3.15,3.15,0,0,1,1.74-.91c.43,0,.79-.3,1.09-.89s.48-.88.56-.88h.82l.24-.12a2,2,0,0,1,1.2-1.95,3.55,3.55,0,0,0,1.71-1.56,4.38,4.38,0,0,1,1.15-1.48,2.43,2.43,0,0,0,.88-1.32l.47-.71a1.25,1.25,0,0,0,.24-.89l1.12-2.12a11,11,0,0,0,.35-2.31,2.16,2.16,0,0,0-1.26-1.94,2.9,2.9,0,0,1-1.27-2.78,3.29,3.29,0,0,1,1.38-2.51c.93-.76,1.39-1.23,1.39-1.38a.32.32,0,0,0-.36-.36,7.57,7.57,0,0,0-1.35.48c-.28.55-1.67,1.27-4.18,2.18a10.12,10.12,0,0,0-1.36-.59c-.23,0-.47.23-.7.71a3.18,3.18,0,0,1-.71,1h-.77c-.07,0-.33.26-.76.77a2.07,2.07,0,0,1-1.65.77l-.71.7a2.49,2.49,0,0,1-1.17,2l-.65.77q-.6.71-1.53,1.65l-1.06,2.66a6.5,6.5,0,0,0-.65,2.3,2.16,2.16,0,0,1-.8.74,1.12,1.12,0,0,0-.62,1c0,.08.14.28.41.59a1.36,1.36,0,0,1,.42.71l-.24.77-.23,2.18Z"/><path class="cls-2" d="M412.74,698.15l.83.35a2.43,2.43,0,0,1,1.13-1.71h.47c.4,0,.91-.53,1.54-1.59l1-.59a1.65,1.65,0,0,0,.71.12.87.87,0,0,0,.68-.48,22.35,22.35,0,0,1,1.64-1.83H421a1.31,1.31,0,0,0,.86-.53,1.78,1.78,0,0,1,1.34-.53l2-.53a9.51,9.51,0,0,1,1.07-.24c.35-.11,1.21.6,2.59,2.16a6.93,6.93,0,0,1,2.07,4.51,1.39,1.39,0,0,1-1.3,1.48l-.3.24v1.18l-1,2.18a2,2,0,0,1-1,1.12c-.36.63-.61,1.06-.77,1.3l-.83.12-.35.35v1.48a16.86,16.86,0,0,0-1.53,3.1,11.42,11.42,0,0,0-1,3c0,.74.16,1.12.47,1.12a1.08,1.08,0,0,0,.71-.3,10.38,10.38,0,0,1,1-.68,3.17,3.17,0,0,0,.91-.79,2.53,2.53,0,0,1,1.24-.74,4.43,4.43,0,0,0,1.77-1.21,15.61,15.61,0,0,1,1.18-1.18,6.69,6.69,0,0,0,.77-.8c.27-.33.45-.5.53-.5a4.31,4.31,0,0,0,1.12-.24,5.55,5.55,0,0,1,.23-.94l1.42-.71,3.42-3.07.47-.59a8.14,8.14,0,0,0,1.18-.35,3.86,3.86,0,0,1,1.59-2.3c0-.16.2-.28.59-.36a4.24,4.24,0,0,1,1.21-1.5,4.62,4.62,0,0,0,1.21-1.39l1.36-1.12a1.5,1.5,0,0,0,.82-.71,32.86,32.86,0,0,1,3.81-3.1,5.44,5.44,0,0,1,2.39-.38,3.28,3.28,0,0,1,2.68,1.27,7.59,7.59,0,0,0,2.24,1.91,2.56,2.56,0,0,1,1.21,2.48c0,1.14-.88,3.33-2.65,6.55a36.85,36.85,0,0,0-1.77,6.23c0,.77-.22,1.21-.53,1.33s-.48.26-.48.41v.24c0,.94.16,1.42.48,1.42a1.74,1.74,0,0,0,1-.59,7.85,7.85,0,0,1,2.5-1.3l.53.12c1.14-1.74,1.9-2.67,2.3-2.81a2.62,2.62,0,0,0,1.17-1.06,1.9,1.9,0,0,1,1.44-.92,1.75,1.75,0,0,0,1.09-.29c0-1,.82-2,2.33-3.19a10.75,10.75,0,0,1,2.61-1.77c.4,0,.71.3.94.89a3.28,3.28,0,0,0,.74,1.21c.25.21.38.4.38.56v1.06a1,1,0,0,1-.76,1,3.39,3.39,0,0,1-1.06,1.54l-1.06-.12c-.2.24-.37.45-.51.65s-.22.27-.26.24q-.47.1-1.68,1.56c-.8,1-1.52,1.76-2.15,2.39l-.23.35a2.8,2.8,0,0,1-.89.48l-1.06.88a2.82,2.82,0,0,0-.7-.35c-.08,0-.25.15-.5.47a7.12,7.12,0,0,1-1.54,1.21,5.46,5.46,0,0,0-1.73,1.68l-.95,1-1.23.17c-.12,0-.32.18-.59.53l-1.06,1.36a2.85,2.85,0,0,1-2.42,1c-.23,0-.54-.21-.91-.62a13.46,13.46,0,0,0-1.06-1.07,28.39,28.39,0,0,1-2.24-2.65,25.62,25.62,0,0,1-1.74-2.33l.35-2.07-.11-1.42a2.73,2.73,0,0,1,.56-1.27,8.11,8.11,0,0,0,.56-.91l-.12-2.3a1.4,1.4,0,0,0,.24-.36l.82-1.35a6.61,6.61,0,0,1-.12-1.3l.24-2a4.12,4.12,0,0,0-1.86,1.92,2.37,2.37,0,0,1-2.1,1.44c-.74,1.34-1.32,2-1.71,2a2,2,0,0,0-.35.47l-.83.48-1-.12-.36,1.47a5.25,5.25,0,0,0-1.68,1.27,4.82,4.82,0,0,1-1.21,1.15l-1,.95h-.95a3.83,3.83,0,0,1-1.83,2.65l-.47.59-1.06-.11a3.61,3.61,0,0,1-1.48,2.3c-.67,0-1.59.61-2.75,1.83s-2,1.83-2.45,1.83q-5.13,0-8.32-6.44c-.08-.15-.27-.45-.56-.88a3.57,3.57,0,0,1-.44-2,5.52,5.52,0,0,1,.62-3.13,16.93,16.93,0,0,0,1.59-3.1c.65-1.51,1.13-2.17,1.45-2a1.85,1.85,0,0,0,.11-.71,3.28,3.28,0,0,0,1-1.71.21.21,0,0,0-.24-.24,2.64,2.64,0,0,0-.71.36l-.83.35a1.19,1.19,0,0,0-.77.47,2.29,2.29,0,0,1-.83.68c-.39.22-.71.4-1,.56h-.17c-.24-.24-.4-.35-.48-.35a3.93,3.93,0,0,1-.59,1.18l-.71.12c-.87.9-1.43,1.35-1.67,1.35a3.35,3.35,0,0,1-1.06-.41c-.56-.28-.83-.55-.83-.83l.41-2.3v-1.06c0-.08.16-.24.48-.47a5.64,5.64,0,0,0,1-1.27A2.33,2.33,0,0,1,412.74,698.15Z"/><path class="cls-2" d="M519.36,710.49h.23l.59.23a.35.35,0,0,0,.24-.12,2.09,2.09,0,0,1,1-1.71,2.69,2.69,0,0,1,1.33-1.71c.69-.39,1.78-1,3.28-1.95l1.48-1.3.71-.35.47-.59a1.78,1.78,0,0,1,1.25-.77c.59,0,.88.22.88.65l-.53,1.18.24,2a2.76,2.76,0,0,1-.74,1.89c-.49.55-1.25,1.36-2.27,2.42l-3,3.19-1.6.82a5.71,5.71,0,0,0-1.06.83l-2.3,2a1.47,1.47,0,0,1-.54,1.24H518l-.47.23a4.82,4.82,0,0,1-2.43,2.19l-.82.59a1.28,1.28,0,0,1-.77.35l-1.66-.24-1.12.24a2.77,2.77,0,0,1-1.27-.47,7.89,7.89,0,0,0-1.63-.74c-.55-.18-1.25-.91-2.1-2.18a10.16,10.16,0,0,1-1.38-2.51,2.26,2.26,0,0,0-.27-.8,2.62,2.62,0,0,1-.27-.68,7.13,7.13,0,0,1,.54-1.18V713a2.68,2.68,0,0,0-.33-.82,3.54,3.54,0,0,1-.32-1.6,3.58,3.58,0,0,0-.36-1.35c.32-.32.47-.55.47-.71a2.13,2.13,0,0,0-.17-.68,2,2,0,0,1-.18-.68l.35-2.89-.23-1.48.12-1.41c0-.83-.36-1.24-1.06-1.24a2,2,0,0,0-1.18.64l-.41.12a14.35,14.35,0,0,0-2.24,1.27,2.14,2.14,0,0,1-1.35.5,3.17,3.17,0,0,1-1.35.65l-.47.36a8.6,8.6,0,0,1-.94.71,14,14,0,0,1-2.21,2q-2.21,1.8-4,3.4a7,7,0,0,1-2.56,1.74c-.53.1-.79.6-.79,1.5,0,.16-.35.48-1.06,1a7.4,7.4,0,0,0-1.24,1.3,4.91,4.91,0,0,0-1.05-.71c-.52,0-.89.65-1.13,2-.24.51-.87.82-1.89.94a2.43,2.43,0,0,0-.42.89l-.23.23h-.59a3.19,3.19,0,0,0-.83.68,3.73,3.73,0,0,1-1.25.86c-.51,1.06-.94,1.59-1.3,1.59a1.62,1.62,0,0,1-.68-.24,5.82,5.82,0,0,0-1.09-.41c-.44-.12-.92-.6-1.45-1.45a4.28,4.28,0,0,1-.8-2.15q0-6.56,2.54-7.14l.12-.24v-.47a1.12,1.12,0,0,1,.68-1.09,4.11,4.11,0,0,0,1.39-1.3,4.51,4.51,0,0,1,.94-1.09h.77c.16,0,.23-.42.23-1.24a.9.9,0,0,1,.3-.65,1.36,1.36,0,0,0,.35-.86,5.42,5.42,0,0,1,.86-1.83,5.81,5.81,0,0,0,.8-1.5l-.12-.24a5.74,5.74,0,0,1-2.13,1.48q-.64.12-1.77,1.71l-.94-.18a23.15,23.15,0,0,1-3.08,2.07,3.38,3.38,0,0,0-1.3,1.36.48.48,0,0,1-.41.47,6.48,6.48,0,0,0-1.54.94h-.36c-1,0-1.48-.71-1.48-2.12l1.24-3.37a5,5,0,0,1,2.51-2.68,29.68,29.68,0,0,0,3.33-2.1,4.9,4.9,0,0,1,2.71-1.06l.42-.59a4.52,4.52,0,0,0,2.71-2.42q.71-1.65,1.95-1.65a5.69,5.69,0,0,1,4.95,2.39,7.37,7.37,0,0,1,1.71,3.8l.12,1.6a10.39,10.39,0,0,1-.36,2.3,3.41,3.41,0,0,0-.7,1.59c0,.32.19.48.59.48a1.71,1.71,0,0,0,.94-.51,7.77,7.77,0,0,1,1.33-.91c.49-.28.77-.51.85-.71a3.4,3.4,0,0,1,2.06-2,5.8,5.8,0,0,0,1.83-.88l.59-.48.47-.88a6.68,6.68,0,0,0,2.13-1.3,2.51,2.51,0,0,1,1.41-.77,4.91,4.91,0,0,0,2-1.06l.88-.24.83-.47a2.14,2.14,0,0,1,.71-.29c.39-.12,1-.33,1.74-.62a5.21,5.21,0,0,1,1.56-.44,5.52,5.52,0,0,1,4.74,2.42,7.49,7.49,0,0,1,1.75,3.89l-.12,1.06.23,1.6v.23l-.47,3.25.12,1.12c0,1.85-.39,3.13-1.18,3.84-.2.08-.3.27-.3.59v.53l1.18,2.48c.36.86.63,1.3.83,1.3l1.89-.53a2.3,2.3,0,0,0,1.37-1.24,9,9,0,0,0,1.65-1.42C518.47,710.8,518.84,710.49,519.36,710.49Z"/><path class="cls-2" d="M532.61,716.39l-.47-3a3.05,3.05,0,0,1,.36-1.12.81.81,0,0,0,.59-.24l-.36-1.06a5.74,5.74,0,0,1,1.15-3.57,7.64,7.64,0,0,0,1.28-2,23.08,23.08,0,0,1,1.68-3.45,21.17,21.17,0,0,1,2.33-3.75l.36-.77.47-.12a14.18,14.18,0,0,1,3.84-4,7.45,7.45,0,0,1,2-2.13c.79-.55,1.32-.94,1.59-1.18a2.5,2.5,0,0,1,1.25-.47l.23-.12a4.69,4.69,0,0,1,3-1.71,5.58,5.58,0,0,1,1.65-.94h.65a1.26,1.26,0,0,0,.71-.24,1.26,1.26,0,0,1,.71-.24,4.61,4.61,0,0,1,1.24.48,2.59,2.59,0,0,1,1.54-1,4.24,4.24,0,0,1,2.51,1,4.12,4.12,0,0,1,1.62,2.3,4.66,4.66,0,0,0,.59,1.59,4.36,4.36,0,0,1,.48.59c.31,0,.72-.72,1.24-2.18l.71-.95a11.78,11.78,0,0,0,2.19-4.84,3.16,3.16,0,0,0,.36-1,20.09,20.09,0,0,1,1.25-2.92,16.42,16.42,0,0,0,2.43-5.08l.72-1.06a1.5,1.5,0,0,0,.77-1,2.52,2.52,0,0,1,.35-1c.2-.31.43-.69.68-1.15a4.82,4.82,0,0,1,.62-.91,5.93,5.93,0,0,0,.71-1.62c.31-.93.7-1.45,1.15-1.57a4.57,4.57,0,0,0,1.39-.65l.12-.41L578,664c0-.47.52-1.3,1.56-2.48a20.5,20.5,0,0,0,2.25-2.92c.45-.77,1.22-2,2.3-3.54a14.6,14.6,0,0,1,2.33-2.92l1.36-1.42a3.05,3.05,0,0,1,2.65-1.36,4.07,4.07,0,0,1,2.72,1.39,4,4,0,0,1,1.42,2.75,9,9,0,0,1-.65,2.18l-.12.71a5.2,5.2,0,0,1-.65,2.24,8.19,8.19,0,0,0-.77,2l-3.3,8.08a2.63,2.63,0,0,0-.71.36c-1,2.24-1.83,3.46-2.42,3.66V674c0,.43-.28.75-.83.94l-.23.12a8.26,8.26,0,0,1-1.36,3.25,7.12,7.12,0,0,0-1.21,2,1.54,1.54,0,0,1-1.21,1.15c-.55.08-.83.85-.83,2.31-.16.78-.55,1.18-1.18,1.18s-1,.51-1.12,1.53-.93,1.58-2.3,1.65a1.42,1.42,0,0,0-.71.83l.47,1.48a12,12,0,0,1-2.18,2.77l-.47,1.54c-.75.27-1.36,2.3-1.83,6.07l-.71,4.08.12,1.59-.24.83.71,2.42-.12,1.36c0,.63.24.94.71.94a4.13,4.13,0,0,0,1.59-1.06l.83-.36q3.71-1.89,4.59-3.66a2.7,2.7,0,0,1,.86-.47,1.93,1.93,0,0,0,.91-.65,4.78,4.78,0,0,1,.47-.59,15.16,15.16,0,0,0,4.65-4.13,4.42,4.42,0,0,1,2.18-2.12l.47-.48a2.08,2.08,0,0,1,1.18-.59c.67,0,1,.2,1,.59l-.47,1.66a11.51,11.51,0,0,1,.59,1.82,2.32,2.32,0,0,1-1.83,2.54,5.93,5.93,0,0,0-1.21,1.77,2.3,2.3,0,0,1-1.92,1.24,5.94,5.94,0,0,1-1.83,1.86c-.55.3-.83.6-.83.92v.53a3.38,3.38,0,0,1-.82.94l-1.13-.23a8.91,8.91,0,0,1-1.06,2,.88.88,0,0,0-.53-.24,1.56,1.56,0,0,0-1.36,1c-.35.67-.61,1-.77,1h-1.35a6.28,6.28,0,0,0-1,.76,3.18,3.18,0,0,1-2.18.59l-1.83.36a7.69,7.69,0,0,1-4.79-1.68c-1.46-1.13-2.23-2.15-2.33-3.07a11.91,11.91,0,0,0-1-3.34l-.11-2.42c-.44-2.52-.93-3.78-1.48-3.78l-.12.77-.47.24c-.24,1.22-.63,1.83-1.18,1.83a2.68,2.68,0,0,0-.77.59l-.36.23a2.71,2.71,0,0,0-.67,1,9.7,9.7,0,0,1-2.46,2.48c-.55,1.45-1,2.18-1.24,2.18l-.71-.47h-.12c-.31,0-.57.46-.76,1.38s-.59,1.39-1.19,1.39c-.15,0-.3.27-.44.8a1.32,1.32,0,0,1-1,1c-.56.14-1,.68-1.48,1.62s-.73,1.42-.89,1.42a.84.84,0,0,1-.35-.12l-1,.24c-.19.28-.47.73-.82,1.36a3.51,3.51,0,0,0-1,.47,6.69,6.69,0,0,1-4.85,1.77,5.54,5.54,0,0,1-3.36-.91,4.16,4.16,0,0,1-1.48-1.57,8,8,0,0,0-.89-1.62A5.56,5.56,0,0,1,532.61,716.39ZM556.19,703l.41-.77a2.14,2.14,0,0,0,1.3-1.77,23,23,0,0,0,2.42-3.07,16.26,16.26,0,0,0,1.95-3,1.88,1.88,0,0,0-1.36-.59,3.35,3.35,0,0,0-.71.24,6.22,6.22,0,0,1-1.21.35,5.62,5.62,0,0,0-1.33.47l-1.47-.23c-.44,0-1.4.57-2.9,1.71l-1.35-.24c-.24,0-.63.51-1.19,1.54l-3,2.42h-.35c-.55,0-.93.49-1.12,1.47a6.72,6.72,0,0,1-1.89,1.8,2.71,2.71,0,0,0-1.24,1.45v.77c-1.11,1.22-1.66,2.14-1.66,2.77a5.64,5.64,0,0,0-1.62,2.54,10.58,10.58,0,0,1-.92,2.3,11.47,11.47,0,0,1,.36,2c.08.8.47,1.21,1.18,1.21q1.71,0,3.78-2.07a9.53,9.53,0,0,1,1-.65,14.39,14.39,0,0,0,2.45-2.09,14.81,14.81,0,0,1,1.75-1.63c.39-.39.62-.59.7-.59l.48-.47c0-.16.16-.33.5-.53a6.74,6.74,0,0,0,1.33-1.21,4.28,4.28,0,0,1,1.27-1.09,1.22,1.22,0,0,0,.62-.5,1.71,1.71,0,0,1,.59-.62.84.84,0,0,0,.41-.65l.12-.71Zm20.48-24-.59,1.72c.51-.08,1-.61,1.36-1.6a23.67,23.67,0,0,1,2.42-3.13c.51,0,.89-.32,1.15-1a5.24,5.24,0,0,1,1.39-1.92,3.83,3.83,0,0,1,.88-1.59,16.73,16.73,0,0,0,1.15-1.68,6.28,6.28,0,0,1,1.09-1.33,8.16,8.16,0,0,0,1.57-2.83,6.25,6.25,0,0,1,1.27-2.43,2,2,0,0,0,.53-1.65q0-1.71-.24-1.71c-.35,0-.62.23-.8.68a6.86,6.86,0,0,1-1.15,1.74l-2,3.37a17.71,17.71,0,0,0-1.57,3.18c-.25.79-.55,1.25-.88,1.39a3.42,3.42,0,0,0-1.21,1.15l-.83.83a8,8,0,0,0-.47,1.71l-.53.47v1.12a1.74,1.74,0,0,1-.89,1.39c-.59.41-.88.68-.88.8Z"/><path class="cls-2" d="M629.55,706.83l.94-.83a1,1,0,0,0,1.06-.8,1.94,1.94,0,0,1,1.26-1.27,4.85,4.85,0,0,0,2-1.91c.62-1,1.27-1.45,1.94-1.45.23,0,.51.2.82.59a1.76,1.76,0,0,1,.47.94,8.07,8.07,0,0,1-1.18,4l-.23,1.65-.42.77a2.6,2.6,0,0,0-1.15,1,4.23,4.23,0,0,1-1.38,1.3l-.59.83a2.68,2.68,0,0,0-1.75,1.35,1.65,1.65,0,0,1-1.23,1.07,3.06,3.06,0,0,0-1.74,1.18,9.48,9.48,0,0,1-1.42.53l-.12.59a4.14,4.14,0,0,1-1.86.94,10.68,10.68,0,0,0-1.89.68,2.28,2.28,0,0,1-.85.33,4.75,4.75,0,0,1-2.07-.45,6.51,6.51,0,0,0-1.94-.56,1.32,1.32,0,0,1-.42-.77,2.62,2.62,0,0,0-.59-1.09,3,3,0,0,1-.53-1.86l.24-1.12a1.05,1.05,0,0,0-.3-.59,1,1,0,0,1-.29-.59.46.46,0,0,1,.12-.35.53.53,0,0,0,.11-.36,2.39,2.39,0,0,0-.11-.65,1.87,1.87,0,0,1-.12-.59l.35-2.89c0-.23-.08-.35-.23-.35s-.45.19-.86.59a2.05,2.05,0,0,1-1.45.59,2.66,2.66,0,0,0-.76,1.47,5.31,5.31,0,0,1-1.18,1.07l-.24.35c-.08.28-.38.5-.89.68a2.12,2.12,0,0,0-1.06.68l-.59.59-1.12-.12a7.88,7.88,0,0,0-.65,1,4.81,4.81,0,0,1-1.36,1.51l-4.48,3.66c-.48.31-1.17.71-2.07,1.18l-.35.35q-4.73,3.13-6.68,3.13A9.76,9.76,0,0,1,589,722c-1.41-.59-2.18-1.29-2.3-2.12l-.59-2.42a4.28,4.28,0,0,1-.53-2.3,2.47,2.47,0,0,1,.12-.95v-.35l-.12-2c0-.47.38-.71,1.12-.71l-.12-1.59a8.33,8.33,0,0,1,1-1.86,9,9,0,0,1,1.38-1.86l.6-.77a1.92,1.92,0,0,1,.82-1.5,7.78,7.78,0,0,0,1.42-1.63,7.23,7.23,0,0,1,2-1.82l1.77-1.78a18.22,18.22,0,0,1,4.49-3.3,5.9,5.9,0,0,0,1.45-1.18,7,7,0,0,1,2.48-1.57,16.28,16.28,0,0,0,2.72-1.26,4.59,4.59,0,0,1,2.1-.77h.47a23.77,23.77,0,0,0,3.14-1.48h.35a3.59,3.59,0,0,1,1.12.48h.12l.95-.48a1.26,1.26,0,0,1,.59-.12c2.44,0,3.78,1.7,4,5.08.08.71.27,1.06.59,1.06s1-.71,1.68-2.15,2.28-2.16,4.64-2.16c1.69,0,2.54,1.09,2.54,3.25,0,2.56-1.15,5-3.43,7.26a4.26,4.26,0,0,0-.35,1.06l-.83,2.42v.12a1.86,1.86,0,0,1-.5,1,1.84,1.84,0,0,0-.5,1.09l.12,1.47-.24,1.66a2,2,0,0,0,.41,1.47,4.79,4.79,0,0,0,2.74-1.56,4,4,0,0,1,1.21-1.21l.58-.24A5.82,5.82,0,0,1,629.55,706.83Zm-19.6,0a2.74,2.74,0,0,1,1.45-2,2.92,2.92,0,0,0,1.44-1.39,30.39,30.39,0,0,0,3.22-3c1.4-1.42,2.1-2.28,2.1-2.6,0-.12-.08-.17-.24-.17h-.12l-.47.29-1.06-.12-1.13.12-.82-.41-.77.12-1.18-.24a3.29,3.29,0,0,0-1.62.38,11.91,11.91,0,0,1-2.6.86,9.41,9.41,0,0,0-3.46,1.62,4.66,4.66,0,0,1-2.24,1.15,8.84,8.84,0,0,1-2.77,2.54,2.72,2.72,0,0,0-1.83,2.07,6.83,6.83,0,0,0-1.54,1.41l-.41,1a4.06,4.06,0,0,1-1.18.68,1.36,1.36,0,0,0-.83,1.24,3.38,3.38,0,0,1-.79,1.77,2.22,2.22,0,0,0-.68,1.27c0,1.92.37,2.89,1.12,2.89a7.28,7.28,0,0,0,2-.62,8,8,0,0,0,1.74-.86,2.65,2.65,0,0,1,.94-.47l1.12-.59a1,1,0,0,1,.54-.3,1,1,0,0,0,.58-.38,3.9,3.9,0,0,1,1.07-.71,2.9,2.9,0,0,0,1.18-1c.67-.39,1.75-1,3.25-1.83l1.24-1a4.33,4.33,0,0,0,1.59-1A3.05,3.05,0,0,1,610,706.83Z"/><path class="cls-2" d="M653.64,668.75l.82-.23.59-.59h.12l.53.23h.12a5.43,5.43,0,0,0,2.52-.56,11.87,11.87,0,0,1,1.84-.79,4.87,4.87,0,0,0,.93-.36.59.59,0,0,1,.29-.12l1,.12c.31,0,.74-.56,1.27-1.68a6.52,6.52,0,0,1,1.8-2.45,8.06,8.06,0,0,0,2-2.89,4.4,4.4,0,0,0,.53-.92c.2-.41.36-.62.47-.62a1.6,1.6,0,0,0,1.42-1.12c1.18-1.37,2.14-2.06,2.89-2.06,1,0,1.67.94,2.06,2.83l.6,2.24a8.17,8.17,0,0,1-.3.86,4,4,0,0,0-.27,1.59,4.06,4.06,0,0,1-.05,1.06,2,2,0,0,0-.09.62c0,.32.33.48,1,.48a3.65,3.65,0,0,0,1.3-.48l.35-.11a2.14,2.14,0,0,0,1,.35,17.18,17.18,0,0,0,1.68-.59,13.82,13.82,0,0,1,2-.65,7.63,7.63,0,0,0,1.41-.47h.71l.47.18a2.51,2.51,0,0,0,1-.51,6.08,6.08,0,0,1,2.8-.62l.83-.35h.23q1.95,0,1.95,1.71a3,3,0,0,1-.56,1.24,8.41,8.41,0,0,0-.91,2l-2.72,3.42a3.67,3.67,0,0,1-2.71,1.77c-.16,0-.65-.53-1.48-1.59q0-.12-.24-.12a3.62,3.62,0,0,0-1.24.24,3.39,3.39,0,0,1-1.06.23c-.12,0-1.16.3-3.13.89l-1.41.23a6.23,6.23,0,0,0-1.13.24l-3,.59a5.36,5.36,0,0,0-2.42,2.89c0,.08-.2.26-.59.53l-2.66,4.84a2.33,2.33,0,0,0-1.71,1.54l-.24.35a2.06,2.06,0,0,0-1.18.74,6.38,6.38,0,0,1-1,1l-1.06,1.6c-.44.55-.87,1.15-1.3,1.8a7,7,0,0,0-1,2.06,4.17,4.17,0,0,1-.47,1.27.92.92,0,0,0-.18.65l-.18.47a2.24,2.24,0,0,0-.71,1.6l.24.94c-.55,1.89-.83,2.9-.83,3a4.42,4.42,0,0,0,.12.65v.36a7.86,7.86,0,0,1-.95,3.24l.12,1-.35,2.65a10,10,0,0,0,.35,1.95c-.16.16-.23.28-.23.36a5.77,5.77,0,0,0,1.74,3.63c1.16,1.31,1.74,3.37,1.74,6.16a4.94,4.94,0,0,1-.17,1,8.06,8.06,0,0,0-.24,1.47,2.43,2.43,0,0,1-.92,1.57,2.4,2.4,0,0,1-1.44.76q-3.13,0-4.68-4.54a25.53,25.53,0,0,1-1.53-5.84l.12-2.31-.36-1.18.36-5.19-.24-1.24,1.36-5.08v-1.83a4,4,0,0,1,.83-.94q0-.12-.24-.12c-.24,0-.55.24-.95.71a8.21,8.21,0,0,1-1.48,1.36l-.47.82a1.35,1.35,0,0,0-.47-.23,13.35,13.35,0,0,0-1.95,2.77,2.61,2.61,0,0,0-2,1.42,2.2,2.2,0,0,1-1.95,1.24l-.24.11c-.16,1.15-.71,1.72-1.66,1.72l-.23.12c-.6,1.33-1.21,2-1.84,1.94a3.85,3.85,0,0,1-2.9,2.42,2.37,2.37,0,0,1-1,1.07,4.35,4.35,0,0,0-1,.64.79.79,0,0,1-.53.3c-.51,0-.77-.55-.77-1.65a1.87,1.87,0,0,1,.39-1,1.86,1.86,0,0,0,.38-.79c0-.08-.19-.32-.59-.71,0-1.22.32-2,.95-2.3a3.22,3.22,0,0,0,1.42-1.36,1.77,1.77,0,0,1,1.18-1c.59-.2.88-.46.88-.77s.52-.83,1.54-1.65a14.85,14.85,0,0,0,2.25-2.16c.47-.61.86-.91,1.18-.91l.23-.24c.08-1,.46-1.48,1.13-1.48l.59-.35.12-.47.35-.24H645l.3-.23a2.91,2.91,0,0,1,1.39-2.31,31.76,31.76,0,0,0,4.63-4.63,26.5,26.5,0,0,0,3.79-4.87,19.92,19.92,0,0,1,1.5-2.86,7.73,7.73,0,0,0,1.22-3.39,1.88,1.88,0,0,0-.36-.48l-2.54,1.24c0-.12-.39-.29-1.18-.53a4.77,4.77,0,0,0-1.3,1.06c-.27.36-.49.53-.64.53l-.83-.11-2.6.29a11.85,11.85,0,0,0-5.25,1.42l-2.42.71h-.53a3.05,3.05,0,0,0-1.42.59l-1.36-.12a6.92,6.92,0,0,1-2.77,1,5.66,5.66,0,0,1-.71-.12l-6,1.66a14.8,14.8,0,0,0-3.19,2.42l-.47.11c-.39,0-.85-.44-1.39-1.32a4.8,4.8,0,0,1-.79-2.39q0-5.85,10-6.79l2.42-1h.12l.65.24h.23a2.74,2.74,0,0,0,1.13-.44,15.54,15.54,0,0,1,3.42-1.09l2.42-.65.77.11a2.52,2.52,0,0,0,1.33-.47,5.76,5.76,0,0,1,2.24-.68,9.42,9.42,0,0,0,2.09-.44l1-.24a2.71,2.71,0,0,0,1-.41,4,4,0,0,1,1.92-.41A4.61,4.61,0,0,1,653.64,668.75Z"/><path class="cls-2" d="M669.66,701.63l1-.83H671c.28,0,.69-.29,1.24-.88l.59-.24a5,5,0,0,1,2.07-2.06l.95-.71a1.75,1.75,0,0,1,.68-.41,5.93,5.93,0,0,0,1.41-1.15,2.7,2.7,0,0,1,1.57-1,3.1,3.1,0,0,1,.95.12,3.8,3.8,0,0,1,1.41-1.39,5.94,5.94,0,0,0,1.72-1.62l.77-.36a6.1,6.1,0,0,0,1.68-1.21,2.59,2.59,0,0,1,1.92-.73,5.39,5.39,0,0,1,3.57,1.74,4.8,4.8,0,0,1,1.86,3.33l-1,4.61q-1,5.07-2.25,5.31l-.23,1.24c-.55.39-.83.71-.83.94l.36,1.42c0,.2-.22.49-.65.88q-.12,0-.12.36v2.42a1.22,1.22,0,0,1-.83,1.06,1.4,1.4,0,0,0,.36.24,2.35,2.35,0,0,1,1.59-.36l.94.12,1.3-1.3a5,5,0,0,0,1.15-.56,19.81,19.81,0,0,1,2.51-1.15l7.72-5.9c1.06-1.06,1.86-1.6,2.42-1.6s.88.38.88,1.13a4.25,4.25,0,0,1-.5,2.15,11.21,11.21,0,0,0-.92,2.07,3.77,3.77,0,0,1-1,1.68,4.67,4.67,0,0,0-.92,1,7.24,7.24,0,0,1-1.91,1.63,17.37,17.37,0,0,0-2.66,2.15,12.6,12.6,0,0,1-1.8,1.56l-2.54,1.83-.35.59a5.33,5.33,0,0,1-1.09.51,7,7,0,0,0-1.74,1l-1.07.59a2.43,2.43,0,0,1-1.15.3,2,2,0,0,0-1.38.67c-.4.42-.71.62-.95.62l-.88-.11-1.18.35a4.16,4.16,0,0,1-2.45-1.21,3.39,3.39,0,0,1-1.45-2.57v-.35l.12-.83a5.62,5.62,0,0,0-.35-1.21,7.5,7.5,0,0,1-.36-1.09l.12-.83-.12-.35a5.06,5.06,0,0,1,.24-2,3.65,3.65,0,0,0,.35-1.15c.08-.49.16-.89.24-1.21l.29-1.47a1.83,1.83,0,0,1,.59-.95q.12-.47.48-1.59l.23-1.06.59-.83a2,2,0,0,0,.56-1.27,4.28,4.28,0,0,1,.62-1.68,3.78,3.78,0,0,0,.53-1.06.62.62,0,0,0-.7-.71,5.09,5.09,0,0,0-1.48.94l-1.06-.35c-.08,0-.3.19-.65.59,0,.16-.18.27-.53.35a1.76,1.76,0,0,0-1,.89l-.47.11-.77-.35H678c-.4,0-.63.43-.71,1.3a3.05,3.05,0,0,1-1.72,1.24l-1.29.35a1.61,1.61,0,0,0-.95,1.07,3.35,3.35,0,0,1-1.18,1.5,2.91,2.91,0,0,1-1.18.68q-1.65,0-1.65-1.83l.47-2.78Zm25.5-29.51-.35-2.3v-.36c0-1.85.62-2.87,1.88-3.07a21.67,21.67,0,0,0,2.48-.76,4.12,4.12,0,0,1,2.22,1.86,5.21,5.21,0,0,1,1.15,2.86,1.93,1.93,0,0,1-.18.53,5.17,5.17,0,0,0-.24,1.56,2.68,2.68,0,0,1-1.15,2,3.69,3.69,0,0,1-2.33.86,3.57,3.57,0,0,1-2.09-1.15A3.78,3.78,0,0,1,695.16,672.12Z"/><path class="cls-2" d="M737.13,715.92l-2.78,2.42a.67.67,0,0,0-.47-.24c-.39,0-.88.35-1.45,1.06s-1,1.06-1.21,1.06l-.59-.11a7.72,7.72,0,0,1-2.12,1.29,8.64,8.64,0,0,0-1.57.65,4.4,4.4,0,0,1-1.65.54,1.83,1.83,0,0,0-1.21.5,3.88,3.88,0,0,1-2.31.44l-.94-.12a3.26,3.26,0,0,1-1,.36,1.51,1.51,0,0,1-1-.51,2,2,0,0,0-1.15-.56,2,2,0,0,1-1.27-.82,4.65,4.65,0,0,0-1.21-1.07,2.42,2.42,0,0,1-.92-.82l-.83-.71a6.92,6.92,0,0,1-2-2.6,7.24,7.24,0,0,1-.94-2.95v-.23l.12-1.13-.12-1.29a4.06,4.06,0,0,0,.59-1v-1.89l1.42-4.72c.08-.2-.08-.45-.48-.77a2.4,2.4,0,0,1-1.18,1.07,1.14,1.14,0,0,0-.8.82c-.14.44-.37.65-.68.65l-.72-.23a5.47,5.47,0,0,0-.53,1.21,1.48,1.48,0,0,1-1.43,1.09c-.71,0-1.07-.28-1.07-.83l.12-1.06-.36-1.48a4.8,4.8,0,0,1,1-1.86,3.61,3.61,0,0,1,1.74-1.59,2.3,2.3,0,0,0,1.36-1.12,8.76,8.76,0,0,1,2.45-2.21,3,3,0,0,0,1.84-1.54,6.64,6.64,0,0,1,2.15-1.06,4.3,4.3,0,0,0,2-1.21,15.85,15.85,0,0,1,4-2.48,12.76,12.76,0,0,1,4.87-1.68,4.58,4.58,0,0,0,1.31-.27c.55-.18,1.06-.33,1.53-.47a7,7,0,0,0,1.48-.65,2.76,2.76,0,0,1,1.24-.44l1.72.59a14.67,14.67,0,0,1,2.3.76,5.92,5.92,0,0,0,1.22.51,14.21,14.21,0,0,1,2.24,1,2.53,2.53,0,0,1,1.16,2.42,11,11,0,0,0-1,1.59c0,.16.45.4,1.36.71.32.59.79,1.36,1.42,2.3l.65,2.07.12,4.84-.12.47c-.43.4-.65.65-.65.77l.18,1.18-.48,1.65a1.45,1.45,0,0,1-.59,1,1.08,1.08,0,0,0-.53.59l-.35.47a9,9,0,0,0-.5,1,4.7,4.7,0,0,1-.86,1.33,2,2,0,0,0-.59,1.12,1.37,1.37,0,0,1-.59,1,2.06,2.06,0,0,0-.68.61A1.71,1.71,0,0,1,737.13,715.92Zm-18.34,1.53.23,1.36.12.12h.94l.3.11a9.64,9.64,0,0,0,1.77.24,4.34,4.34,0,0,0,2.91-.92,3.21,3.21,0,0,1,1.74-.91c.43,0,.79-.3,1.09-.89s.48-.88.56-.88h.82l.24-.12a2,2,0,0,1,1.2-1.95,3.55,3.55,0,0,0,1.71-1.56,4.51,4.51,0,0,1,1.15-1.48,2.43,2.43,0,0,0,.88-1.32l.48-.71a1.3,1.3,0,0,0,.23-.89l1.12-2.12a10.33,10.33,0,0,0,.35-2.31,2.16,2.16,0,0,0-1.26-1.94,2.9,2.9,0,0,1-1.27-2.78,3.27,3.27,0,0,1,1.39-2.51c.92-.76,1.38-1.23,1.38-1.38a.32.32,0,0,0-.35-.36,7.52,7.52,0,0,0-1.36.48c-.27.55-1.67,1.27-4.18,2.18a10.37,10.37,0,0,0-1.35-.59c-.24,0-.48.23-.71.71a3.18,3.18,0,0,1-.71,1h-.76c-.08,0-.34.26-.77.77a2.07,2.07,0,0,1-1.65.77l-.71.7a2.49,2.49,0,0,1-1.17,2l-.65.77q-.59.71-1.53,1.65l-1.06,2.66a6.73,6.73,0,0,0-.65,2.3,2.08,2.08,0,0,1-.8.74,1.12,1.12,0,0,0-.62,1c0,.08.14.28.42.59a1.4,1.4,0,0,1,.41.71l-.24.77-.23,2.18Z"/><path class="cls-2" d="M802,710.49h.23l.6.23a.33.33,0,0,0,.23-.12,2.09,2.09,0,0,1,1-1.71,2.69,2.69,0,0,1,1.33-1.71c.69-.39,1.79-1,3.29-1.95l1.47-1.3.71-.35.48-.59a1.74,1.74,0,0,1,1.24-.77c.59,0,.89.22.89.65l-.54,1.18.24,2a2.76,2.76,0,0,1-.74,1.89c-.49.55-1.25,1.36-2.27,2.42l-3,3.19-1.59.82a5.47,5.47,0,0,0-1.07.83l-2.3,2a1.49,1.49,0,0,1-.53,1.24h-1l-.47.23a4.82,4.82,0,0,1-2.43,2.19l-.82.59a1.28,1.28,0,0,1-.77.35l-1.66-.24-1.12.24a2.81,2.81,0,0,1-1.27-.47,7.82,7.82,0,0,0-1.62-.74c-.56-.18-1.26-.91-2.1-2.18A10.35,10.35,0,0,1,787,715.8a2.26,2.26,0,0,0-.27-.8,2.43,2.43,0,0,1-.26-.68,6.56,6.56,0,0,1,.53-1.18V713a2.68,2.68,0,0,0-.33-.82,3.68,3.68,0,0,1-.32-1.6,3.58,3.58,0,0,0-.36-1.35c.32-.32.48-.55.48-.71a2,2,0,0,0-.18-.68,2,2,0,0,1-.18-.68l.36-2.89-.24-1.48.12-1.41c0-.83-.36-1.24-1.06-1.24a2,2,0,0,0-1.18.64l-.41.12a13.67,13.67,0,0,0-2.23,1.27,2.18,2.18,0,0,1-1.36.5,3.11,3.11,0,0,1-1.35.65l-.47.36a8.6,8.6,0,0,1-.94.71,14,14,0,0,1-2.21,2q-2.21,1.8-4,3.4a7,7,0,0,1-2.56,1.74c-.52.1-.79.6-.79,1.5,0,.16-.35.48-1.06,1a7.18,7.18,0,0,0-1.23,1.3,4.82,4.82,0,0,0-1.06-.71c-.51,0-.89.65-1.13,2-.23.51-.86.82-1.89.94a2.32,2.32,0,0,0-.41.89l-.24.23h-.59a3.19,3.19,0,0,0-.83.68,3.81,3.81,0,0,1-1.24.86c-.52,1.06-1,1.59-1.31,1.59a1.67,1.67,0,0,1-.68-.24,5.82,5.82,0,0,0-1.09-.41c-.43-.12-.91-.6-1.45-1.45a4.25,4.25,0,0,1-.79-2.15q0-6.56,2.53-7.14l.12-.24v-.47a1.12,1.12,0,0,1,.68-1.09,4,4,0,0,0,1.39-1.3,4.75,4.75,0,0,1,.94-1.09h.77c.16,0,.24-.42.24-1.24a.88.88,0,0,1,.29-.65,1.37,1.37,0,0,0,.36-.86,5.14,5.14,0,0,1,.85-1.83,5.81,5.81,0,0,0,.8-1.5l-.12-.24a5.73,5.73,0,0,1-2.12,1.48c-.44.08-1,.65-1.78,1.71l-.94-.18a23.35,23.35,0,0,1-3.07,2.07,3.33,3.33,0,0,0-1.31,1.36c0,.23-.13.39-.41.47a6.48,6.48,0,0,0-1.54.94h-.35c-1,0-1.48-.71-1.48-2.12l1.23-3.37a5,5,0,0,1,2.51-2.68,29.68,29.68,0,0,0,3.33-2.1,4.93,4.93,0,0,1,2.72-1.06l.41-.59a4.52,4.52,0,0,0,2.71-2.42q.71-1.65,2-1.65a5.69,5.69,0,0,1,5,2.39,7.37,7.37,0,0,1,1.71,3.8l.12,1.6a10.88,10.88,0,0,1-.35,2.3,3.35,3.35,0,0,0-.71,1.59c0,.32.19.48.59.48a1.68,1.68,0,0,0,.94-.51,8.18,8.18,0,0,1,1.33-.91c.49-.28.77-.51.85-.71a3.42,3.42,0,0,1,2.07-2,5.83,5.83,0,0,0,1.82-.88l.59-.48.48-.88a6.73,6.73,0,0,0,2.12-1.3,2.51,2.51,0,0,1,1.41-.77,4.91,4.91,0,0,0,2-1.06l.88-.24.83-.47a2.14,2.14,0,0,1,.71-.29c.39-.12,1-.33,1.74-.62a5.21,5.21,0,0,1,1.56-.44,5.52,5.52,0,0,1,4.75,2.42,7.45,7.45,0,0,1,1.74,3.89l-.12,1.06.24,1.6v.23l-.48,3.25.12,1.12c0,1.85-.39,3.13-1.18,3.84-.2.08-.29.27-.29.59v.53l1.18,2.48c.35.86.63,1.3.82,1.3l1.9-.53a2.32,2.32,0,0,0,1.36-1.24,8.63,8.63,0,0,0,1.65-1.42C801.08,710.8,801.46,710.49,802,710.49Z"/></g></svg>